<?xml version="1.0" encoding="UTF-8" standalone="no"?>
<svg
   xmlns:dc="http://purl.org/dc/elements/1.1/"
   xmlns:cc="http://creativecommons.org/ns#"
   xmlns:rdf="http://www.w3.org/1999/02/22-rdf-syntax-ns#"
   xmlns:svg="http://www.w3.org/2000/svg"
   xmlns="http://www.w3.org/2000/svg"
   xmlns:sodipodi="http://sodipodi.sourceforge.net/DTD/sodipodi-0.dtd"
   xmlns:inkscape="http://www.inkscape.org/namespaces/inkscape"
   viewBox="0 0 226.77333 68.026665"
   height="68.026665"
   width="226.77333"
   xml:space="preserve"
   id="svg2"
   version="1.1"
   inkscape:version="0.91 r13725"
   sodipodi:docname="achmea.svg"><sodipodi:namedview
     pagecolor="#ffffff"
     bordercolor="#666666"
     borderopacity="1"
     objecttolerance="10"
     gridtolerance="10"
     guidetolerance="10"
     inkscape:pageopacity="0"
     inkscape:pageshadow="2"
     inkscape:window-width="1920"
     inkscape:window-height="1011"
     id="namedview3492"
     showgrid="false"
     inkscape:zoom="7.6993181"
     inkscape:cx="113.38667"
     inkscape:cy="34.013332"
     inkscape:window-x="0"
     inkscape:window-y="27"
     inkscape:window-maximized="1"
     inkscape:current-layer="svg2" /><metadata
     id="metadata8"><rdf:RDF><cc:Work
         rdf:about=""><dc:format>image/svg+xml</dc:format><dc:type
           rdf:resource="http://purl.org/dc/dcmitype/StillImage" /></cc:Work></rdf:RDF></metadata><defs
     id="defs6" /><g
     transform="matrix(1.3333333,0,0,-1.3333333,0,68.026667)"
     id="g10"><g
       transform="scale(0.1)"
       id="g12"><path
         id="path14"
         style="fill:#bf2519;fill-opacity:1;fill-rule:evenodd;stroke:none"
         d="m 1320.98,255.121 c 0,-44.238 35.82,-80.031 79.96,-80.031 19.36,0 37.71,6.125 50.95,18.234 1.42,1.332 3.28,2.129 5.36,2.129 2.26,0 4.25,-0.883 5.66,-2.308 l 8.98,-8.93 c 0.88,-0.945 2.29,-1.551 3.7,-1.551 3,0 5.42,2.41 5.42,5.348 V 322.23 c 0,2.942 -2.42,5.348 -5.42,5.348 -1.41,0 -2.82,-0.605 -3.7,-1.547 l -8.98,-8.933 c -1.41,-1.426 -3.4,-2.309 -5.66,-2.309 -2.08,0 -3.94,0.797 -5.36,2.129 -13.24,12.109 -31.59,18.238 -50.95,18.238 -44.14,0 -79.96,-35.801 -79.96,-80.035 z m 212.2,0 c 0,-70.703 -57.52,-128.226 -128.21,-128.226 -32.05,0 -60.98,10.386 -81.46,29.234 -2.68,2.422 -6.09,3.742 -9.59,3.742 -3.65,0 -7.17,-1.453 -9.9,-4.094 -0.01,-0.011 -14.51,-14.437 -14.51,-14.437 -1.45,-1.41 -3.35,-2.192 -5.34,-2.192 -1.97,0 -3.83,0.778 -5.23,2.184 -1.44,1.43 -2.22,3.34 -2.22,5.383 v 216.816 c 0,2.039 0.78,3.949 2.22,5.379 1.4,1.406 3.26,2.184 5.23,2.184 1.99,0 3.89,-0.781 5.35,-2.199 -0.01,0.011 14.49,-14.418 14.49,-14.418 2.74,-2.653 6.26,-4.106 9.91,-4.106 3.5,0 6.91,1.324 9.58,3.734 20.49,18.86 49.42,29.243 81.47,29.243 34.24,0 66.43,-13.34 90.65,-37.555 24.22,-24.223 37.56,-56.422 37.56,-90.672" /><path
         id="path16"
         style="fill:#bf2519;fill-opacity:1;fill-rule:evenodd;stroke:none"
         d="m 564.355,307.934 c -8.16,8.164 -19.492,12.304 -33.679,12.304 -17.254,0 -31.113,-7.07 -41.196,-21.011 l -0.339,-0.461 h -0.578 -0.465 -1.129 v 1.125 63.515 c 0,2.91 -0.719,5.106 -2.125,6.512 -1.336,1.34 -3.34,2.02 -5.949,2.02 H 445.73 V 193.602 h 41.239 v 52.16 c 0,27.25 9.222,40.496 28.199,40.496 5.551,0 10.066,-1.699 13.426,-5.059 5.215,-5.219 7.754,-14.265 7.754,-27.664 v -59.933 h 41.332 v 77.535 c 0,15.136 -4.731,28.207 -13.325,36.797" /><path
         id="path18"
         style="fill:#bf2519;fill-opacity:1;fill-rule:evenodd;stroke:none"
         d="m 383.938,220.156 c -10.598,0 -20.633,3.961 -27.543,10.864 -6.2,6.203 -9.477,14.242 -9.477,23.257 0,21.325 13.98,35.649 34.793,35.649 7.512,0 13.738,-1.055 19.613,-3.336 l 0.809,-0.352 c 0.855,-0.363 1.472,-0.629 2.183,-0.722 h 0.301 c 1.793,0 3.25,1.422 3.25,3.172 v 25.429 c -8.929,3.754 -19.398,5.692 -31.195,5.692 -22.688,0 -42.359,-7.176 -55.387,-20.204 -11.312,-11.312 -17.293,-26.73 -17.293,-44.585 0,-17.805 5.965,-33.176 17.242,-44.454 12.989,-12.988 32.606,-20.14 55.231,-20.14 11.152,0 23.355,1.824 33.668,4.98 v 30.242 c -7.406,-3.46 -16.781,-5.492 -26.195,-5.492" /><path
         id="path20"
         style="fill:#bf2519;fill-opacity:1;fill-rule:evenodd;stroke:none"
         d="m 817.781,310.102 c -6.82,6.82 -17.156,10.136 -31.609,10.136 -19.094,0 -34.625,-8.386 -43.734,-23.617 l -1.161,-1.93 -0.855,2.082 c -6.262,15.129 -19.891,23.465 -38.379,23.465 -17.805,0 -31.645,-6.211 -46.215,-20.703 -0.125,-0.14 -3.09,-3.461 -6.348,-3.461 -1.914,0 -3.761,0.719 -5.25,2.071 0,0 -17.328,17.507 -17.316,17.5 -0.801,0.785 -2.152,1.722 -4.07,1.722 -1.504,0 -2.926,-0.601 -4.012,-1.683 -1.09,-1.09 -1.715,-2.571 -1.715,-4.059 V 193.602 h 41.285 v 52.07 c 0,33.516 14.059,40.547 25.856,40.547 4.789,0 8.75,-1.531 11.781,-4.563 4.352,-4.351 6.656,-11.785 6.656,-21.48 v -66.574 h 41.285 v 52.07 c 0,33.516 14.055,40.547 25.844,40.547 4.785,0 8.754,-1.543 11.801,-4.594 4.387,-4.383 6.703,-11.801 6.703,-21.449 v -66.574 h 41.188 v 73.046 c 0,21.942 -3.618,35.34 -11.735,43.454" /><path
         id="path22"
         style="fill:#bf2519;fill-opacity:1;fill-rule:evenodd;stroke:none"
         d="m 229.441,232.754 c -5.41,-5.41 -12.492,-8.391 -19.949,-8.391 -7.488,0 -14.59,2.981 -20,8.387 -5.859,5.863 -9.086,13.809 -9.086,22.371 0,16.945 13.047,30.727 29.086,30.727 7.461,0 14.551,-2.977 19.961,-8.387 5.86,-5.863 9.094,-13.793 9.094,-22.34 0,-8.555 -3.234,-16.504 -9.106,-22.367 z m 42.86,75.156 V 202.301 c 0,-3.129 -2.571,-5.68 -5.731,-5.68 -1.476,0 -2.933,0.609 -3.992,1.672 0.004,0 -6.508,6.555 -6.508,6.555 -1.422,1.507 -3.39,2.347 -5.511,2.347 -1.914,0 -3.68,-0.695 -5.25,-2.078 -11.09,-10.168 -22.727,-14.691 -37.75,-14.691 -17.301,0 -33.551,6.722 -45.758,18.929 -12.215,12.211 -18.942,28.465 -18.942,45.766 0,17.289 6.727,33.535 18.942,45.754 12.207,12.207 28.465,18.934 45.758,18.934 14.992,0 26.625,-4.532 37.734,-14.688 1.582,-1.41 3.352,-2.125 5.266,-2.125 1.961,0 3.957,0.844 5.488,2.301 0.023,0.023 6.535,6.633 6.535,6.633 1.016,1.047 2.469,1.648 3.988,1.648 1.532,0 2.969,-0.594 4.051,-1.68 1.067,-1.062 1.68,-2.519 1.68,-3.988" /><path
         id="path24"
         style="fill:#bf2519;fill-opacity:1;fill-rule:evenodd;stroke:none"
         d="m 1106.86,277.465 c -5.41,5.406 -12.48,8.383 -19.91,8.383 -16.06,0 -29.12,-13.782 -29.12,-30.727 0,-8.555 3.22,-16.5 9.08,-22.351 5.42,-5.422 12.54,-8.407 20.04,-8.407 7.43,0 14.49,2.977 19.9,8.379 5.87,5.879 9.11,13.824 9.11,22.379 0,8.539 -3.24,16.477 -9.1,22.344 z m 42.87,30.445 V 202.301 c 0,-3.129 -2.56,-5.68 -5.7,-5.68 -1.51,0 -3.01,0.613 -4.11,1.684 0.02,-0.012 -6.46,6.543 -6.46,6.543 -1.37,1.484 -3.37,2.347 -5.48,2.347 -1.93,0 -3.76,-0.722 -5.28,-2.09 -11.1,-10.156 -22.71,-14.679 -37.67,-14.679 -17.34,0 -33.62,6.726 -45.84,18.945 -12.2,12.207 -18.93,28.457 -18.93,45.75 0,17.285 6.73,33.527 18.93,45.738 12.23,12.215 28.5,18.95 45.84,18.95 14.93,0 26.54,-4.532 37.66,-14.688 1.53,-1.387 3.35,-2.125 5.29,-2.125 1.95,0 3.99,0.867 5.47,2.313 0.02,0.011 6.49,6.621 6.49,6.621 1.04,1.043 2.54,1.648 4.09,1.648 1.53,0 2.95,-0.59 4.03,-1.664 1.06,-1.066 1.67,-2.523 1.67,-4.004" /><path
         id="path26"
         style="fill:#bf2519;fill-opacity:1;fill-rule:evenodd;stroke:none"
         d="m 928.508,294.574 c -12.903,0 -21.828,-8.144 -24.488,-22.347 -0.29,-1.86 0.121,-3.528 1.152,-4.731 1.016,-1.18 2.566,-1.832 4.371,-1.832 h 38.25 c 1.781,0 3.316,0.625 4.32,1.758 0.746,0.844 1.575,2.391 1.254,5.004 -1.824,14.078 -10.887,22.148 -24.859,22.148 z m 62.68,-44.281 v -6.945 h -86.559 l 0.18,-1.282 c 2.355,-16.808 14.754,-24.98 37.894,-24.98 8.934,0 22.508,1.641 37.164,8.992 v -28.012 c -13.074,-5.054 -28.152,-7.64 -44.887,-7.64 -22.144,0 -41.421,7.078 -54.281,19.933 -11.351,11.356 -17.347,26.832 -17.347,44.762 0,19.102 6.039,35.234 17.464,46.66 11.789,11.793 28.508,18.028 48.356,18.028 18.449,0 33.148,-5.336 43.672,-15.864 15.16,-15.16 18.344,-37.543 18.344,-53.652" /><path
         id="path28"
         style="fill:#5ecade;fill-opacity:1;fill-rule:evenodd;stroke:none"
         d="m 1319.85,255.121 c 0,-21.695 8.44,-42.09 23.77,-57.418 15.31,-15.312 35.67,-23.742 57.32,-23.742 20.28,0 38.65,6.582 51.72,18.527 1.28,1.207 2.86,1.836 4.59,1.836 1.88,0 3.6,-0.703 4.85,-1.972 0.01,-0.008 9,-8.938 9,-8.938 1.07,-1.148 2.8,-1.875 4.49,-1.875 1.76,0 3.41,0.676 4.65,1.918 1.22,1.219 1.9,2.84 1.9,4.555 V 322.23 c 0,1.719 -0.68,3.336 -1.9,4.555 -1.24,1.242 -2.89,1.922 -4.65,1.922 -1.69,0 -3.42,-0.73 -4.52,-1.906 0.03,0.031 -8.96,-8.903 -8.96,-8.903 -1.26,-1.277 -2.98,-1.98 -4.86,-1.98 -1.73,0 -3.31,0.633 -4.58,1.824 -13.08,11.961 -31.45,18.543 -51.73,18.543 -44.71,0 -81.09,-36.406 -81.09,-81.164" /><path
         id="path30"
         style="fill:#5ecade;fill-opacity:1;fill-rule:evenodd;stroke:none"
         d="m 1319.85,255.121 c 0,-21.695 8.44,-42.09 23.77,-57.418 15.31,-15.312 35.67,-23.742 57.32,-23.742 20.28,0 38.65,6.582 51.72,18.527 1.28,1.207 2.86,1.836 4.59,1.836 1.88,0 3.6,-0.703 4.85,-1.972 0.01,-0.008 9,-8.938 9,-8.938 1.07,-1.148 2.8,-1.875 4.49,-1.875 1.76,0 3.41,0.676 4.65,1.918 1.22,1.219 1.9,2.84 1.9,4.555 V 322.23 c 0,1.719 -0.68,3.336 -1.9,4.555 -1.24,1.242 -2.89,1.922 -4.65,1.922 -1.69,0 -3.42,-0.73 -4.52,-1.906 0.03,0.031 -8.96,-8.903 -8.96,-8.903 -1.26,-1.277 -2.98,-1.98 -4.86,-1.98 -1.73,0 -3.31,0.633 -4.58,1.824 -13.08,11.961 -31.45,18.543 -51.73,18.543 -44.71,0 -81.09,-36.406 -81.09,-81.164" /><path
         id="path32"
         style="fill:#bf2519;fill-opacity:1;fill-rule:evenodd;stroke:none"
         d="m 530.676,321.367 c -18.906,0 -32.656,-8.402 -42.113,-21.476 h -0.465 c 0,0 0,61.093 0,63.515 0,7.102 -3.989,9.66 -9.203,9.66 -2.086,0 -34.293,0 -34.293,0 V 192.477 h 43.496 v 53.285 c 0,27.011 9.168,39.371 27.07,39.371 11.895,0 20.047,-7.961 20.047,-31.598 v -61.058 h 43.594 v 78.66 c 0,26.136 -13.836,50.23 -48.133,50.23" /><path
         id="path34"
         style="fill:#bf2519;fill-opacity:1;fill-rule:evenodd;stroke:none"
         d="m 348.047,254.277 c 0,21.875 14.805,34.52 33.664,34.52 7.312,0 13.418,-1.016 19.18,-3.25 1.328,-0.551 2.183,-1.02 3.308,-1.156 0.164,0 0.293,0 0.418,0 2.446,0 4.375,1.933 4.375,4.297 0,0.062 0,26.218 0,26.218 -9.383,4.078 -20.262,6.032 -32.32,6.032 -41.777,0 -73.813,-23.907 -73.813,-65.918 0,-41.829 31.868,-65.727 73.606,-65.727 11.308,0 24.004,1.844 34.797,5.25 v 32.816 c -7.356,-3.808 -17.317,-6.074 -27.324,-6.074 -18.911,0 -35.891,12.86 -35.891,32.992" /><path
         id="path36"
         style="fill:#bf2519;fill-opacity:1;fill-rule:evenodd;stroke:none"
         d="m 786.172,321.367 c -17.852,0 -34.59,-7.262 -44.707,-24.164 -6.777,16.383 -21.485,24.164 -39.422,24.164 -18.508,0 -32.426,-6.519 -47.063,-21.086 0,0 -2.714,-3.078 -5.5,-3.078 -1.707,0 -3.269,0.668 -4.453,1.738 l -17.324,17.508 c -1.25,1.231 -2.93,2.047 -4.859,2.047 -3.828,0 -6.86,-3.219 -6.86,-6.871 V 192.477 h 43.547 v 53.195 c 0,27.062 9.246,39.422 24.727,39.422 12.258,0 17.305,-10.629 17.305,-24.918 v -67.699 h 43.542 v 53.195 c 0,27.062 9.165,39.422 24.719,39.422 12.188,0 17.371,-10.629 17.371,-24.918 v -67.699 h 43.45 v 74.171 c 0,34.176 -8.243,54.719 -44.473,54.719" /><path
         id="path38"
         style="fill:#bf2519;fill-opacity:1;fill-rule:evenodd;stroke:none"
         d="m 209.492,225.492 c -15.515,0 -27.961,13.246 -27.961,29.629 0,16.363 12.446,29.602 27.961,29.602 15.43,0 27.918,-13.239 27.918,-29.602 0,-16.383 -12.488,-29.629 -27.918,-29.629 z m 57.078,89.215 c -1.968,0 -3.672,-0.82 -4.793,-1.988 l -6.511,-6.606 c -1.211,-1.156 -2.895,-1.984 -4.707,-1.984 -1.77,0 -3.274,0.73 -4.504,1.828 -10.879,9.945 -22.559,14.981 -38.496,14.981 -36.438,0 -65.829,-29.493 -65.829,-65.817 0,-36.351 29.391,-65.828 65.829,-65.828 15.937,0 27.617,5 38.496,14.973 1.23,1.086 2.734,1.804 4.504,1.804 1.812,0 3.496,-0.734 4.707,-2.019 l 6.511,-6.555 c 1.121,-1.129 2.825,-2.004 4.793,-2.004 3.868,0 6.86,3.164 6.86,6.809 V 307.91 c 0,3.621 -2.992,6.797 -6.86,6.797" /><path
         id="path40"
         style="fill:#bf2519;fill-opacity:1;fill-rule:evenodd;stroke:none"
         d="m 1086.95,225.492 c -15.53,0 -27.99,13.246 -27.99,29.629 0,16.363 12.46,29.602 27.99,29.602 15.35,0 27.87,-13.239 27.87,-29.602 0,-16.383 -12.52,-29.629 -27.87,-29.629 z m 57.08,89.215 c -2.01,0 -3.74,-0.82 -4.9,-1.988 l -6.47,-6.606 c -1.19,-1.156 -2.91,-1.984 -4.68,-1.984 -1.77,0 -3.32,0.73 -4.53,1.828 -10.89,9.945 -22.57,14.981 -38.42,14.981 -36.51,0 -65.9,-29.493 -65.9,-65.817 0,-36.351 29.39,-65.828 65.9,-65.828 15.85,0 27.53,5 38.42,14.973 1.21,1.086 2.76,1.804 4.53,1.804 1.77,0 3.49,-0.734 4.68,-2.019 l 6.47,-6.555 c 1.16,-1.129 2.89,-2.004 4.9,-2.004 3.88,0 6.83,3.164 6.83,6.809 V 307.91 c 0,3.621 -2.95,6.797 -6.83,6.797" /><path
         id="path42"
         style="fill:#bf2519;fill-opacity:1;fill-rule:evenodd;stroke:none"
         d="m 947.793,266.797 h -38.25 c -3.156,0 -4.875,2.25 -4.414,5.219 2.273,12.144 9.617,21.429 23.379,21.429 15.039,0 22.183,-9.191 23.738,-21.164 0.449,-3.707 -1.633,-5.484 -4.453,-5.484 z m -18.621,54.141 c -38.93,0 -66.953,-24.2 -66.953,-65.817 0,-41.648 31.433,-65.828 72.761,-65.828 16.094,0 31.856,2.363 46.016,7.957 v 30.629 c -13.152,-6.961 -26.562,-9.66 -38.293,-9.66 -21.094,0 -34.344,6.629 -36.773,24.004 h 86.383 v 8.07 c 0,37.406 -16.817,70.645 -63.141,70.645" /><path
         id="path44"
         style="fill:#bf2519;fill-opacity:1;fill-rule:evenodd;stroke:none"
         d="m 1320.98,255.121 c 0,-44.238 35.82,-80.031 79.96,-80.031 19.36,0 37.71,6.125 50.95,18.234 1.42,1.332 3.28,2.129 5.36,2.129 2.26,0 4.25,-0.883 5.66,-2.308 l 8.98,-8.93 c 0.88,-0.945 2.29,-1.551 3.7,-1.551 3,0 5.42,2.41 5.42,5.348 V 322.23 c 0,2.942 -2.42,5.348 -5.42,5.348 -1.41,0 -2.82,-0.605 -3.7,-1.547 l -8.98,-8.933 c -1.41,-1.426 -3.4,-2.309 -5.66,-2.309 -2.08,0 -3.94,0.797 -5.36,2.129 -13.24,12.109 -31.59,18.238 -50.95,18.238 -44.14,0 -79.96,-35.801 -79.96,-80.035 z m 213.33,0 c 0,-71.43 -57.92,-129.355 -129.34,-129.355 -31.27,0 -60.96,9.957 -82.23,29.531 -2.34,2.109 -5.41,3.449 -8.82,3.449 -3.57,0 -6.77,-1.516 -9.12,-3.781 l -14.5,-14.43 c -1.59,-1.543 -3.74,-2.512 -6.13,-2.512 -4.72,0 -8.58,3.868 -8.58,8.692 v 216.816 c 0,4.824 3.86,8.692 8.58,8.692 2.39,0 4.54,-0.973 6.13,-2.516 l 14.5,-14.43 c 2.35,-2.265 5.55,-3.777 9.12,-3.777 3.41,0 6.48,1.336 8.82,3.445 21.27,19.575 50.96,29.532 82.23,29.532 71.42,0 129.34,-57.926 129.34,-129.356" /><path
         id="path46"
         style="fill:#5ecade;fill-opacity:1;fill-rule:evenodd;stroke:none"
         d="m 1320.98,255.121 c 0,-44.238 35.82,-80.031 79.96,-80.031 19.36,0 37.71,6.125 50.95,18.234 1.42,1.332 3.28,2.129 5.36,2.129 2.26,0 4.25,-0.883 5.66,-2.308 l 8.98,-8.93 c 0.88,-0.945 2.29,-1.551 3.7,-1.551 3,0 5.42,2.41 5.42,5.348 V 322.23 c 0,2.942 -2.42,5.348 -5.42,5.348 -1.41,0 -2.82,-0.605 -3.7,-1.547 l -8.98,-8.933 c -1.41,-1.426 -3.4,-2.309 -5.66,-2.309 -2.08,0 -3.94,0.797 -5.36,2.129 -13.24,12.109 -31.59,18.238 -50.95,18.238 -44.14,0 -79.96,-35.801 -79.96,-80.035" /><path
         id="path48"
         style="fill:#ffffff;fill-opacity:1;fill-rule:evenodd;stroke:none"
         d="m 1370.51,255.121 c 0,19.02 14.48,34.516 32.45,34.516 17.95,0 32.49,-15.496 32.49,-34.516 0,-19.023 -14.54,-34.519 -32.49,-34.519 -17.97,0 -32.45,15.496 -32.45,34.519" /></g></g></svg>