<?xml version="1.0" standalone="no"?>
<!DOCTYPE svg PUBLIC "-//W3C//DTD SVG 20010904//EN"
 "http://www.w3.org/TR/2001/REC-SVG-20010904/DTD/svg10.dtd">
<svg version="1.0" xmlns="http://www.w3.org/2000/svg"
 width="2000.000000pt" height="2000.000000pt" viewBox="0 0 2000.000000 2000.000000"
 preserveAspectRatio="xMidYMid meet">
<metadata>
Created by potrace 1.11, written by Peter Selinger 2001-2013
</metadata>
<g transform="translate(0.000000,2000.000000) scale(0.100000,-0.100000)"
fill="#000000" stroke="none">
<path d="M2615 19860 c3 -74 8 -148 10 -165 2 -16 7 -67 10 -112 3 -46 8 -91
9 -100 2 -10 7 -49 11 -88 4 -38 9 -79 11 -89 2 -11 6 -42 9 -70 6 -64 45
-317 49 -325 2 -3 7 -30 10 -60 4 -29 8 -56 10 -60 2 -3 7 -24 10 -45 4 -22
13 -71 22 -110 8 -39 17 -80 19 -91 13 -67 40 -179 90 -375 46 -181 203 -672
255 -795 4 -11 34 -85 65 -165 115 -292 301 -688 437 -930 35 -63 67 -122 71
-130 4 -8 13 -24 20 -35 7 -11 25 -42 42 -70 165 -282 423 -661 640 -939 61
-79 279 -342 295 -356 3 -3 43 -48 89 -100 204 -230 704 -708 916 -876 28 -21
52 -41 55 -44 19 -20 265 -209 386 -295 245 -177 554 -374 749 -480 39 -20 75
-41 80 -45 30 -22 407 -208 575 -283 388 -172 866 -343 1240 -444 90 -24 278
-72 302 -78 13 -2 84 -18 158 -35 146 -33 166 -37 208 -45 65 -13 290 -55 322
-60 19 -3 60 -10 90 -15 30 -5 71 -12 90 -15 190 -27 326 -45 380 -50 36 -4
73 -9 83 -11 10 -1 50 -6 90 -9 39 -3 88 -7 107 -10 30 -4 122 -12 240 -20 19
-1 89 -5 155 -9 66 -4 145 -9 175 -11 175 -12 228 -16 250 -20 14 -2 52 -7 85
-10 274 -27 686 -122 995 -230 233 -82 562 -232 755 -345 50 -29 99 -58 110
-64 69 -39 275 -179 370 -250 308 -231 619 -541 846 -842 259 -342 467 -728
608 -1127 56 -160 132 -442 155 -577 3 -19 8 -46 11 -60 3 -13 7 -42 11 -64 3
-22 7 -43 9 -46 2 -3 6 -35 9 -70 3 -36 8 -74 10 -85 21 -109 29 -663 13 -835
-19 -194 -40 -338 -73 -499 -217 -1057 -828 -1991 -1711 -2619 -604 -430
-1287 -686 -2045 -768 -283 -31 -825 -20 -1033 20 -11 2 -45 7 -75 12 -30 4
-57 8 -60 9 -3 1 -25 5 -50 9 -116 20 -383 90 -522 136 -366 122 -655 264
-998 489 -47 31 -87 58 -90 61 -3 3 -41 32 -85 64 -382 283 -761 689 -1027
1101 -142 219 -274 462 -358 655 -22 52 -45 104 -50 115 -34 76 -147 397 -166
470 -10 41 -11 45 -14 48 -1 1 -3 9 -5 17 -2 8 -11 40 -19 70 -18 63 -82 347
-90 400 -3 19 -8 46 -10 60 -13 75 -30 201 -40 300 -13 125 -16 163 -21 260
-3 58 -7 133 -10 168 -10 120 -15 188 -20 267 -7 96 -16 198 -31 335 -10 95
-42 338 -49 380 -3 14 -7 43 -10 65 -17 119 -82 434 -126 604 -78 306 -233
749 -351 1011 -211 465 -392 792 -646 1165 -82 121 -256 360 -272 375 -3 3
-30 36 -60 75 -247 314 -619 699 -966 995 -65 56 -285 230 -374 296 -695 516
-1479 903 -2315 1143 -207 59 -551 141 -593 141 -10 0 52 -85 88 -120 3 -3 35
-41 71 -85 172 -210 403 -524 556 -755 46 -69 88 -132 93 -140 74 -111 272
-442 356 -595 21 -38 53 -97 71 -130 38 -69 283 -561 283 -568 0 -3 15 -38 34
-79 86 -185 208 -482 308 -753 93 -251 310 -944 332 -1060 2 -11 22 -92 45
-180 22 -88 42 -171 45 -185 3 -14 7 -34 10 -45 14 -58 59 -267 67 -310 5 -27
13 -70 18 -95 5 -25 12 -65 16 -90 4 -24 8 -47 10 -50 2 -3 6 -23 9 -45 4 -22
16 -96 27 -165 11 -69 22 -136 24 -150 2 -14 6 -45 10 -70 4 -25 9 -58 11 -75
2 -16 6 -41 9 -55 4 -24 8 -58 20 -165 3 -27 8 -61 10 -75 6 -39 16 -136 30
-285 3 -33 8 -80 10 -105 5 -55 12 -137 20 -250 4 -47 8 -105 10 -130 2 -25 7
-119 10 -210 12 -353 21 -524 30 -590 2 -19 7 -69 10 -110 4 -41 8 -86 10
-100 2 -14 6 -43 9 -65 3 -22 8 -60 11 -85 11 -88 46 -297 71 -430 14 -74 28
-146 30 -159 3 -14 7 -28 9 -31 2 -4 7 -22 10 -41 21 -123 177 -688 232 -839
3 -8 27 -76 53 -150 135 -383 335 -828 517 -1150 107 -188 116 -204 166 -285
159 -255 307 -464 493 -695 73 -91 143 -176 156 -190 13 -14 57 -64 98 -110
235 -266 594 -609 859 -820 24 -19 58 -47 75 -61 17 -14 85 -66 151 -116 547
-408 1086 -712 1720 -968 175 -71 527 -194 662 -231 120 -33 468 -124 492
-128 14 -2 82 -16 151 -30 69 -13 154 -30 190 -36 36 -6 76 -13 90 -16 61 -10
392 -53 465 -59 44 -4 94 -9 110 -10 256 -26 1114 -26 1252 -1 10 2 54 7 98
11 44 4 94 8 110 10 17 2 55 6 85 10 30 3 67 8 81 11 15 2 47 6 70 9 94 12
430 71 504 89 6 1 26 6 45 10 19 4 73 17 120 28 47 11 90 21 95 23 243 57 782
231 960 310 17 7 84 35 150 63 278 116 559 258 850 428 149 88 127 74 335 211
216 142 233 154 364 253 54 41 120 90 145 109 25 19 48 37 51 40 3 3 25 22 50
42 25 20 55 46 68 57 13 11 41 35 62 52 150 122 532 491 685 660 109 121 283
330 384 460 109 140 323 442 365 513 12 19 60 97 107 174 121 194 206 349 328
598 90 182 114 234 166 360 21 50 46 110 57 135 11 25 43 106 70 180 170 462
281 880 367 1375 12 64 12 70 30 210 7 50 13 97 16 105 2 8 6 47 10 85 6 75
15 162 20 210 20 177 28 882 12 1095 -13 172 -23 276 -32 350 -2 19 -7 60 -10
90 -4 30 -8 66 -10 80 -6 40 -17 113 -20 140 -5 33 -24 149 -29 176 -2 12 -7
39 -10 60 -4 22 -8 46 -11 54 -2 8 -6 26 -9 40 -23 129 -105 466 -146 605 -12
39 -23 78 -25 88 -13 59 -166 496 -220 627 -27 65 -100 236 -137 320 -57 127
-228 462 -300 583 -15 26 -28 52 -28 57 0 6 -4 10 -10 10 -5 0 -10 5 -10 10 0
15 -165 280 -268 430 -80 117 -308 429 -321 440 -4 3 -22 25 -41 50 -343 442
-952 1022 -1425 1355 -38 27 -76 55 -83 62 -7 7 -17 13 -22 13 -5 0 -15 6 -22
13 -29 27 -339 224 -453 287 -33 18 -78 43 -100 56 -171 97 -546 277 -765 367
-237 98 -756 277 -875 303 -5 1 -37 9 -70 18 -33 9 -67 18 -75 20 -8 2 -44 12
-80 21 -36 9 -72 18 -80 20 -8 2 -75 17 -149 34 -156 36 -145 34 -286 60 -60
12 -117 23 -125 26 -8 2 -35 7 -60 10 -25 3 -81 12 -125 20 -44 7 -102 16
-130 20 -27 3 -61 8 -75 10 -14 2 -47 6 -75 10 -27 3 -63 8 -80 10 -31 4 -178
20 -280 30 -33 3 -78 8 -100 10 -41 4 -155 13 -279 20 -146 9 -252 16 -296 20
-72 6 -165 15 -232 21 -69 6 -91 8 -223 24 -127 15 -165 20 -205 25 -19 3 -53
8 -75 10 -40 5 -103 14 -140 21 -10 2 -37 6 -60 9 -40 6 -198 32 -245 41 -14
2 -41 7 -60 10 -74 12 -466 95 -568 120 -59 14 -114 27 -122 29 -8 2 -44 11
-80 20 -36 9 -69 18 -75 20 -110 25 -581 162 -640 185 -11 4 -76 27 -145 50
-69 22 -134 45 -145 49 -11 5 -96 36 -188 70 -726 268 -1479 652 -2142 1096
-291 194 -693 497 -871 654 -22 20 -56 49 -75 65 -221 188 -580 536 -796 771
-307 335 -597 702 -844 1070 -96 142 -201 304 -207 318 -2 4 -40 67 -84 140
l-80 132 7 -135z"/>
</g>
</svg>
