<?xml version="1.0" standalone="no"?>
<!DOCTYPE svg PUBLIC "-//W3C//DTD SVG 1.1//EN" "http://www.w3.org/Graphics/SVG/1.1/DTD/svg11.dtd" >
<svg xmlns="http://www.w3.org/2000/svg" xmlns:xlink="http://www.w3.org/1999/xlink" version="1.1">
<metadata>
Created by FontForge 20161013 at Mon May 18 16:50:40 2015
 By ,,,
Copyright (c) 2015 by Alfredo Marco Padil. All rights reserved.
</metadata>
<defs>
<font id="GlacialIndifference-Regular" horiz-adv-x="570" >
  <font-face 
    font-family="Glacial Indifference"
    font-weight="400"
    font-stretch="normal"
    units-per-em="1000"
    panose-1="0 0 0 0 0 0 0 0 0 0"
    ascent="750"
    descent="-250"
    x-height="440"
    cap-height="680"
    bbox="-32 -252.189 937 893"
    underline-thickness="45"
    underline-position="-188"
    unicode-range="U+000D-F8FF"
  />
<missing-glyph horiz-adv-x="270" 
 />
    <glyph glyph-name=".notdef" horiz-adv-x="270" 
 />
    <glyph glyph-name=".null" horiz-adv-x="0" 
 />
    <glyph glyph-name="nonmarkingreturn" unicode="&#xd;" horiz-adv-x="0" 
 />
    <glyph glyph-name="NULL" horiz-adv-x="0" 
 />
    <glyph glyph-name="NULL" horiz-adv-x="0" 
 />
    <glyph glyph-name="space" unicode=" " horiz-adv-x="270" 
 />
    <glyph glyph-name="exclam" unicode="!" horiz-adv-x="300" 
d="M191.5 6.5q-17.5 -16.5 -41 -16.5t-41 16.5t-17.5 39.5t17.5 40t41 17t41 -16.5t17.5 -40t-17.5 -40zM202 750l-19 -547h-66l-19 547h104z" />
    <glyph glyph-name="quotedbl" unicode="&#x22;" horiz-adv-x="367" 
d="M130 750l-18 -252h-51l-17 252h86zM323 750l-17 -252h-51l-18 252h86z" />
    <glyph glyph-name="numbersign" unicode="#" horiz-adv-x="569" 
d="M220 437l-23 -174h160l21 174h-158zM432 437l-22 -174h101v-53h-108l-26 -212l-52 7l25 205h-160l-27 -212l-53 7l26 207h-103v51h111l23 174h-106v51h112l24 199l52 -7l-24 -192h159l25 199l52 -7l-24 -192h102v-51h-107z" />
    <glyph glyph-name="dollar" unicode="$" horiz-adv-x="590" 
d="M284 -70v57q-149 7 -215 100q-24 33 -32 80h91q18 -102 156 -107v254q-42 11 -82.5 24t-72.5 34q-72 47 -72 132q0 89 72 140q61 44 155 46v60h55v-63q115 -14 168 -89q19 -27 27 -64h-83q-10 57 -75 76q-19 6 -37 9v-240q42 -10 82.5 -22.5t72.5 -33.5q71 -47 71 -135
q0 -94 -69 -147q-58 -44 -157 -53v-58h-55zM284 392v230q-59 0 -100 -24q-47 -28 -47 -80q0 -54 44 -84q34 -24 103 -42zM339 300v-239q57 7 99 36q47 32 47 82q0 69 -89 103q-27 10 -57 18z" />
    <glyph glyph-name="percent" unicode="%" horiz-adv-x="731" 
d="M557 222q-37 0 -55 -30q-13 -23 -13 -61q0 -60 35 -82q13 -8 32.5 -8t33 8.5t20.5 21.5q15 25 15 50t-3 41t-10 30q-17 30 -55 30zM208 629.5q-13 8.5 -33.5 8.5t-34 -8.5t-20.5 -21.5q-14 -23 -14 -49.5t3 -42.5t11 -29q17 -30 54 -30q36 0 54 30q14 23 14 49.5t-3 42.5
t-10.5 29t-20.5 21.5zM557 -10q-65 0 -102 49q-30 41 -30 92q0 48 28 89q36 53 104 53q67 0 103 -53q28 -41 28 -89q0 -51 -29 -92q-36 -49 -102 -49zM269 0h-70l273 680h72zM174 406q-66 0 -101 49q-30 41 -30 92q0 48 28 89q36 53 103 53q68 0 104 -53q28 -41 28 -89
q0 -51 -30 -92q-37 -49 -102 -49z" />
    <glyph glyph-name="ampersand" unicode="&#x26;" horiz-adv-x="689" 
d="M263 345q-58 -42 -80 -64q-49 -49 -49 -91q0 -50 36.5 -90t87.5 -40q55 0 122 62l32 32zM257 456q12 -12 23 -25q15 11 31.5 22.5t30.5 25.5q32 32 32 69t-25 58t-55.5 22.5t-55.5 -18.5t-25 -64t44 -90zM595 265q-15 -21 -90 -112l117 -153l-92 -2l-74 97
q-50 -50 -80 -69q-61 -38 -108 -38t-83.5 14.5t-62.5 40.5q-57 57 -57 142q0 98 97 169q28 21 58 43q-72 83 -72 146.5t40 105t106 41.5q63 0 104 -39q41 -40 41 -102q0 -66 -78 -131q-21 -17 -40 -32l140 -179q20 24 39 48l38 48z" />
    <glyph glyph-name="quotesingle" unicode="'" horiz-adv-x="173" 
d="M130 750l-18 -252h-51l-17 252h86z" />
    <glyph glyph-name="parenleft" unicode="(" horiz-adv-x="308" 
d="M244 750q-74 -127 -107 -317q-13 -78 -13 -171t13 -172t32 -141q31 -99 74 -173h-66q-33 48 -60 131q-57 177 -57 356q0 180 50 337q27 87 66 150h68z" />
    <glyph glyph-name="parenright" unicode=")" horiz-adv-x="308" 
d="M233 454q15 -85 15 -190t-15 -189t-35 -146q-34 -105 -67 -153h-66q73 126 105 314q14 79 14 172t-13.5 171.5t-32.5 140.5q-31 102 -74 176h68q68 -110 101 -296z" />
    <glyph glyph-name="asterisk" unicode="*" horiz-adv-x="530" 
d="M454 582l-160 -28l114 -111l-70 -51l-73 141l-73 -141l-70 51l114 111l-159 28l26 82l144 -76l-25 162h86l-25 -162l144 76z" />
    <glyph glyph-name="plus" unicode="+" horiz-adv-x="460" 
d="M423 194h-164v-164h-58v164h-163v57h163v164h58v-164h164v-57z" />
    <glyph glyph-name="comma" unicode="," horiz-adv-x="232" 
d="M204 118l-112 -259h-42l58 259h96z" />
    <glyph glyph-name="hyphen" unicode="-" horiz-adv-x="410" 
d="M373 194h-335v57h335v-57z" />
    <glyph glyph-name="period" unicode="." horiz-adv-x="267" 
d="M133 -10q-23 0 -40.5 16.5t-17.5 39.5t17 40t41 17t41.5 -16.5t17.5 -40t-18 -40t-41 -16.5z" />
    <glyph glyph-name="slash" unicode="/" horiz-adv-x="538" 
d="M506 750l-388 -951h-75l388 951h75z" />
    <glyph glyph-name="zero" unicode="0" horiz-adv-x="560" 
d="M334 601q-24 15 -57.5 15t-58 -14.5t-42 -38.5t-28.5 -54t-17 -60q-11 -56 -11 -94t2.5 -67t8.5 -60t17.5 -60.5t29.5 -52.5q39 -53 101 -53q56 0 95 53q45 63 57 173q3 29 3 50q0 90 -29 170q-23 64 -71 93zM280 -9q-121 0 -182 119q-48 94 -48 231t48 232
q61 118 182 118t181 -118q49 -95 49 -232t-49 -231q-60 -119 -181 -119z" />
    <glyph glyph-name="one" unicode="1" horiz-adv-x="287" 
d="M148 0v609h-98v61l168 18v-688h-70z" />
    <glyph glyph-name="two" unicode="2" horiz-adv-x="615" 
d="M63 0l352 355q45 45 45 110q0 64 -47 109q-46 45 -111 45q-67 0 -114 -50q-48 -52 -42 -115h-71q-4 98 63 167q69 70 167 70q94 0 163 -67q67 -65 67 -160q0 -93 -66 -159l-237 -235h310v-70h-479z" />
    <glyph glyph-name="three" unicode="3" horiz-adv-x="520" 
d="M356.5 7.5q-41.5 -17.5 -83 -17.5t-75.5 11t-62 30q-61 42 -85 109l68 23q17 -47 58 -74.5t82 -27.5t70 12.5t51 33.5q47 46 47 110q0 65 -46.5 111.5t-112.5 46.5t-114 -48l-53 43l206 240h-224v70h366l-213 -252l30 18q98 -6 162 -68q69 -67 69 -162t-67 -160
q-32 -31 -73.5 -48.5z" />
    <glyph glyph-name="four" unicode="4" horiz-adv-x="605" 
d="M399 604l-260 -393h260v393zM472 139v-139h-73v139h-384l358 541h98l1 -469h86v-72h-86z" />
    <glyph glyph-name="five" unicode="5" horiz-adv-x="550" 
d="M179 428q51 16 95 16t85 -17.5t72 -47.5q66 -64 66 -159t-67 -164q-67 -68 -164 -68q-72 0 -132 42q-60 41 -85 108l68 22q17 -45 58 -73t82.5 -28t70 12.5t50.5 33.5q47 45 47 110q0 63 -46 111q-45 47 -105.5 47t-103.5 -32l-76 34l78 305h299v-70h-246z" />
    <glyph glyph-name="six" unicode="6" horiz-adv-x="512" 
d="M258 371q-33 0 -62 -12.5t-51 -33.5q-47 -45 -47 -109q0 -65 47 -110q48 -47 112 -47q66 0 111 45q46 46 46 109q0 64 -46 111q-45 47 -110 47zM485 218q0 -50 -18 -91t-49 -72q-66 -66 -162 -66q-94 0 -162 67q-67 65 -67 160q0 82 51 143l266 321h92l-208 -250l20 13
q102 -4 167 -63q70 -63 70 -162z" />
    <glyph glyph-name="seven" unicode="7" horiz-adv-x="493" 
d="M158 0h-78l268 607h-318v70h427z" />
    <glyph glyph-name="eight" unicode="8" horiz-adv-x="526" 
d="M263 346q-60 0 -103 -41q-41 -40 -41 -100q0 -59 41 -102t103 -43t103 43t41 102q0 60 -41 100q-43 41 -103 41zM263 622q-49 0 -83 -32q-35 -33 -35 -81q0 -47 35 -82q34 -34 83 -34t83 34q35 35 35 82q0 48 -35 81q-34 32 -83 32zM263 -10q-94 0 -158 55
q-65 57 -65 149q0 50 29.5 97.5t84.5 77.5q-81 67 -81 146q0 78 55 128q54 48 135 48t134 -48q56 -50 56 -128.5t-81 -145.5q55 -30 84.5 -77.5t29.5 -96t-17.5 -86t-48.5 -63.5q-63 -56 -157 -56z" />
    <glyph glyph-name="nine" unicode="9" horiz-adv-x="512" 
d="M254 309q33 0 62 12.5t50 33.5q48 46 48 109q0 65 -47 110q-48 47 -112 47q-66 0 -111 -45q-46 -46 -46 -109q0 -64 46 -111q45 -47 110 -47zM27 462q0 50 18 91t49 72q66 66 162 66q94 0 162 -67q67 -65 67 -160q0 -82 -51 -143l-266 -321h-92l208 250l-20 -13
q-102 4 -167 63q-70 63 -70 162z" />
    <glyph glyph-name="colon" unicode=":" horiz-adv-x="267" 
d="M133 -10q-23 0 -40.5 16.5t-17.5 39.5t17 40t41 17t41.5 -16.5t17.5 -40t-18 -40t-41 -16.5zM133 377q-23 0 -40.5 16.5t-17.5 39.5t17 40t41 17t41.5 -16.5t17.5 -40t-18 -40t-41 -16.5z" />
    <glyph glyph-name="semicolon" unicode=";" horiz-adv-x="267" 
d="M133 377q-23 0 -40.5 16.5t-17.5 39.5t17 40t41 17t41.5 -16.5t17.5 -40t-18 -40t-41 -16.5zM195 118l-112 -259h-42l58 259h96z" />
    <glyph glyph-name="less" unicode="&#x3c;" horiz-adv-x="516" 
d="M471 -38l-426 211v71l426 211v-72l-368 -175l368 -174v-72z" />
    <glyph glyph-name="equal" unicode="=" horiz-adv-x="460" 
d="M383 101h-335v57h335v-57zM383 282h-335v57h335v-57z" />
    <glyph glyph-name="greater" unicode="&#x3e;" horiz-adv-x="516" 
d="M45 34l368 174l-368 175v72l426 -211v-71l-426 -211v72z" />
    <glyph glyph-name="question" unicode="?" horiz-adv-x="506" 
d="M297.5 6.5q-17.5 -16.5 -41 -16.5t-41 16.5t-17.5 39.5t17.5 40t41 17t41 -16.5t17.5 -40t-17.5 -40zM298 203h-85v175q0 78 75 125q48 31 61.5 49.5t13.5 42.5q0 49 -31 73t-76.5 24t-77 -23.5t-36.5 -70.5h-83q8 80 63 123q49 39 133 39q82 0 135 -40q58 -46 58 -125
q0 -47 -39 -84q-17 -17 -36 -31.5t-36 -29.5q-39 -36 -39 -73v-174z" />
    <glyph glyph-name="at" unicode="@" horiz-adv-x="551" 
d="M289.5 180.5q14.5 -18.5 43 -18.5t43 18.5t14.5 41t-14.5 41t-43 18.5t-43 -18.5t-14.5 -41t14.5 -41zM453 113h-52v39q-6 -23 -29 -36t-48.5 -13t-46 10t-35.5 27q-31 35 -31 87q0 45 30 77q32 34 76 34q55 2 84 -42q0 60 -23 81.5t-65 21.5t-73.5 -12.5t-53.5 -35.5
q-46 -48 -46 -124q0 -72 54 -123q53 -49 125 -49h130v-55h-130q-105 0 -172 62q-69 63 -69 165q0 104 62 170q64 68 169 68q63 0 103 -34q41 -35 41 -86v-232z" />
    <glyph glyph-name="A" unicode="A" horiz-adv-x="617" 
d="M185 250h247l-123 313zM607 0h-76l-73 185h-299l-73 -185h-76l299 727z" />
    <glyph glyph-name="B" unicode="B" horiz-adv-x="539" 
d="M519 190q0 -42 -19 -80t-51 -63q-62 -47 -166 -47h-208v680h184q149 0 194 -92q16 -33 16 -67t-5.5 -53.5t-15.5 -37.5q-23 -39 -59 -55q60 -16 95 -64.5t35 -120.5zM399 510q0 103 -140 103h-114v-212h134q54 0 87 27t33 82zM449 203q0 30 -11.5 53t-30.5 39
q-39 36 -93 36h-169v-264h158q64 0 104 37q42 38 42 99z" />
    <glyph glyph-name="C" unicode="C" horiz-adv-x="729" 
d="M699 208q-38 -98 -124 -157q-87 -61 -191 -61q-141 0 -241 104q-98 102 -98 245q0 71 26 134.5t72 111.5q100 104 241 104q104 0 190 -59.5t124 -156.5h-77q-55 101 -164 133q-36 11 -83 11t-96 -22.5t-85 -60.5q-78 -81 -78 -195q0 -113 78 -194q79 -83 191 -83
q76 0 139.5 40t98.5 106h77z" />
    <glyph glyph-name="D" unicode="D" horiz-adv-x="648" 
d="M603 340q0 -74 -27.5 -136.5t-74.5 -107.5t-111 -70.5t-137 -25.5h-178v680h178q73 0 137 -25.5t111 -70.5t74.5 -107.5t27.5 -136.5zM535 340q0 116 -82 194q-80 76 -198 76h-110v-540h110q118 0 198 76q82 78 82 194z" />
    <glyph glyph-name="E" unicode="E" horiz-adv-x="554" 
d="M479 0h-404v680h404v-65h-334v-242h324v-66h-324v-242h334v-65z" />
    <glyph glyph-name="F" unicode="F" horiz-adv-x="499" 
d="M479 615h-334v-242h324v-66h-324v-307h-70v680h404v-65z" />
    <glyph glyph-name="G" unicode="G" horiz-adv-x="791" 
d="M746 318l-7 -42q-22 -124 -121 -204t-223 -80q-72 0 -136 27.5t-111.5 75t-75 111.5t-27.5 136.5t27.5 136.5t75 111.5t111.5 75t129 27.5q122 0 215.5 -69t127.5 -182h-74q-32 83 -103.5 132t-158.5 49q-116 0 -198 -82t-82 -198q0 -115 81.5 -198t198.5 -83
q92 0 167.5 53.5t105.5 141.5h-276v61h354z" />
    <glyph glyph-name="H" unicode="H" horiz-adv-x="599" 
d="M145 0h-70v680h70v-306h309v306h70v-680h-70v304h-309v-304z" />
    <glyph glyph-name="I" unicode="I" horiz-adv-x="220" 
d="M145 0h-70v680h70v-680z" />
    <glyph glyph-name="J" unicode="J" horiz-adv-x="365" 
d="M305 168q0 -98 -68 -144q-54 -36 -135 -34q-34 1 -60.5 8.5t-36.5 15.5v77q28 -24 83 -30q58 -7 98 16q49 27 49 91v512h70v-512z" />
    <glyph glyph-name="K" unicode="K" horiz-adv-x="474" 
d="M145 0h-70v680h70v-319l229 319h90l-250 -340l250 -340h-90l-229 319v-319z" />
    <glyph glyph-name="L" unicode="L" horiz-adv-x="408" 
d="M145 70h243v-70h-243h-35h-35v680h70v-610z" />
    <glyph glyph-name="M" unicode="M" horiz-adv-x="783" 
d="M702 0l-106 484l-204 -524l-205 524l-105 -484h-72l159 725l223 -582l223 582l158 -725h-71z" />
    <glyph glyph-name="N" unicode="N" horiz-adv-x="602" 
d="M145 501v-501h-70v723l382 -543v500h70v-722z" />
    <glyph glyph-name="O" unicode="O" horiz-adv-x="789" 
d="M674 342q0 115 -82 197t-198 82q-115 0 -197 -82t-82 -197q0 -116 82 -198t197 -82q116 0 198 82t82 198zM744 342q0 -72 -27.5 -136t-75 -111.5t-111.5 -75t-136 -27.5t-135.5 27.5t-111 75t-75 111.5t-27.5 136t27.5 136t75 111t111 74.5t135.5 27.5t136 -27.5
t111.5 -74.5t75 -111t27.5 -136z" />
    <glyph glyph-name="P" unicode="P" horiz-adv-x="529" 
d="M145 337h158q59 0 97 40q39 40 39 100t-37 98t-99 38h-158v-276zM509 475q0 -89 -63 -148q-62 -58 -153 -58h-148v-269h-70v680h218q90 0 153 -57q63 -58 63 -148z" />
    <glyph glyph-name="Q" unicode="Q" horiz-adv-x="784" 
d="M744 339q0 -72 -27.5 -135.5t-74.5 -110.5q-31 -31 -69 -53q42 9 79 17h102v-57h-276q-41 -10 -84 -10q-72 0 -135.5 27.5t-111 75t-75 111t-27.5 135.5t27.5 136t75 111.5t111 75t135.5 27.5t136 -27.5t111.5 -75t75 -111.5t27.5 -136zM674 339q0 116 -82 198t-198 82
q-115 0 -197 -82t-82 -198q0 -115 82 -197t197 -82q116 0 198 82t82 197z" />
    <glyph glyph-name="R" unicode="R" horiz-adv-x="544" 
d="M145 336h158q59 0 97 40q39 41 39 100.5t-37 98t-99 38.5h-158v-277zM509 475q0 -89 -63 -149q-56 -51 -135 -56l209 -270h-94l-199 269h-82v-269h-70v680h218q91 0 153 -58q63 -59 63 -147z" />
    <glyph glyph-name="S" unicode="S" horiz-adv-x="574" 
d="M264 321q-208 48 -208 178q0 96 67 143.5t157 47.5q199 0 236 -148h-76q-20 88 -160 88q-98 0 -137 -58q-15 -22 -15 -55q0 -63 68 -97q32 -17 136 -44t151 -60q65 -46 65 -129q0 -103 -81 -156q-68 -44 -168 -44q-226 0 -262 172h83q19 -108 179 -108q114 0 159 63
q18 25 18 67.5t-33 69.5q-47 38 -179 70z" />
    <glyph glyph-name="T" unicode="T" horiz-adv-x="440" 
d="M20 617v65h165h70h165v-65h-165v-615h-70v615h-165z" />
    <glyph glyph-name="U" unicode="U" horiz-adv-x="627" 
d="M567 225q0 -110 -72 -174q-68 -60 -181 -60q-114 0 -182 60q-72 64 -72 174v455h70v-465q0 -77 56 -118q48 -36 128 -36q125 0 168 84q15 29 15 70v465h70v-455z" />
    <glyph glyph-name="V" unicode="V" horiz-adv-x="637" 
d="M319 -41l-309 721h76l233 -548l232 548h76z" />
    <glyph glyph-name="W" unicode="W" horiz-adv-x="783" 
d="M615 -55l-223 592l-223 -592l-159 735h72l105 -494l205 534l204 -534l106 494h71z" />
    <glyph glyph-name="X" unicode="X" horiz-adv-x="606" 
d="M499 0l-196 290l-196 -290h-86l239 339l-240 341h87l196 -290l196 290h86l-239 -340l239 -340h-86z" />
    <glyph glyph-name="Y" unicode="Y" horiz-adv-x="605" 
d="M338 320v-320h-70v320l-258 360h90l203 -291l203 291h89z" />
    <glyph glyph-name="Z" unicode="Z" horiz-adv-x="580" 
d="M152 65h386v-65h-513l403 615h-382v65h509z" />
    <glyph glyph-name="bracketleft" unicode="[" horiz-adv-x="352" 
d="M279 -213h-181v963h181v-49h-115v-864h115v-50z" />
    <glyph glyph-name="backslash" unicode="\" horiz-adv-x="538" 
d="M506 -201h-74l-389 951h75z" />
    <glyph glyph-name="bracketright" unicode="]" horiz-adv-x="352" 
d="M254 -213h-181v50h115v864h-115v49h181v-963z" />
    <glyph glyph-name="asciicircum" unicode="^" horiz-adv-x="585" 
d="M527 343h-77l-157 291l-157 -291h-77l182 336h103z" />
    <glyph glyph-name="underscore" unicode="_" horiz-adv-x="585" 
d="M563 -146h-540v58h540v-58z" />
    <glyph glyph-name="grave" unicode="`" horiz-adv-x="186" 
d="M166 750h-56l-110 143h76z" />
    <glyph glyph-name="a" unicode="a" 
d="M425 220q0 64 -45 112q-44 48 -110 48t-110 -48q-45 -48 -45 -112t45 -112q44 -48 110 -48t110 48q45 48 45 112zM495 0h-70v75q-6 -8 -13 -15q-62 -70 -153 -70t-153 70q-61 68 -61 160t61 160q62 70 153 70t153 -70q7 -7 13 -15v75h70v-440z" />
    <glyph glyph-name="b" unicode="b" 
d="M145 0h-70v750h70v-385q6 8 13 15q62 70 153 70t153 -70q61 -68 61 -160t-61 -160q-62 -70 -153 -70t-153 70q-7 7 -13 15v-75zM455 220q0 64 -45 112q-44 48 -110 48t-110 -48q-45 -48 -45 -112t45 -112q44 -48 110 -48t110 48q45 48 45 112z" />
    <glyph glyph-name="c" unicode="c" horiz-adv-x="521" 
d="M486 282h-76q-18 42 -56 68t-77 26t-67 -12.5t-49 -34.5q-44 -46 -44 -109q0 -64 44.5 -110.5t108.5 -46.5q42 0 77.5 22t55.5 59h79q-37 -106 -143 -142q-33 -12 -75 -12t-83 18.5t-71 49.5q-65 69 -65 162q0 94 65 161q66 68 160 68q76 0 136 -47q59 -45 80 -120z" />
    <glyph glyph-name="d" unicode="d" 
d="M425 220q0 64 -45 112q-44 48 -110 48t-110 -48q-45 -48 -45 -112t45 -112q44 -48 110 -48t110 48q45 48 45 112zM495 0h-70v75q-6 -8 -13 -15q-62 -70 -153 -70t-153 70q-61 68 -61 160t61 160q62 70 153 70t153 -70q7 -7 13 -15v385h70v-750z" />
    <glyph glyph-name="e" unicode="e" horiz-adv-x="545" 
d="M505 230v-37h-387q10 -57 55 -93q46 -37 102 -37q38 0 72.5 17.5t57.5 48.5h80q-28 -63 -84.5 -99.5t-115 -36.5t-100 18t-73.5 49q-67 66 -67 162q0 95 67.5 162.5t162.5 67.5q92 0 161 -65q69 -66 69 -157zM431 253q-12 56 -56 93q-44 36 -100 36q-86 0 -135 -78
q-15 -23 -21 -51h312z" />
    <glyph glyph-name="f" unicode="f" horiz-adv-x="341" 
d="M311 685h-60q-35 0 -46 -16t-11 -39v-190h117v-65h-117v-375h-70v375h-89v65h89v170q0 67 31.5 103.5t105.5 36.5h50v-65z" />
    <glyph glyph-name="g" unicode="g" horiz-adv-x="576" 
d="M431 220q0 64 -45 112q-44 48 -110 48q-64 0 -110 -48q-45 -47 -45 -112t45 -112q46 -48 110 -48q66 0 110 48q45 48 45 112zM119 -60q10 -41 43 -73q46 -47 111 -47t111.5 46.5t46.5 111.5v96q-5 -7 -11 -14q-63 -70 -154 -70q-92 0 -154 70q-61 68 -61 160t61 160
q62 70 154 70q88 0 154 -70q6 -7 11 -14v74h70v-462q0 -94 -67 -161t-161 -67t-161 67q-53 53 -64 123h71z" />
    <glyph glyph-name="h" unicode="h" horiz-adv-x="509" 
d="M145 0h-70v750h70v-386q22 37 56 61q36 24 83 24t76 -13.5t49 -36.5q40 -47 40 -124v-275h-70v275q0 43 -19.5 73.5t-64.5 30.5t-73 -14.5t-46 -40.5q-31 -48 -31 -140v-184z" />
    <glyph glyph-name="i" unicode="i" horiz-adv-x="229" 
d="M146 592q13 -13 13 -31.5t-13 -31.5t-31.5 -13t-31.5 13t-13 31.5t13 31.5t31.5 13t31.5 -13zM150 0h-70v440h70v-440z" />
    <glyph glyph-name="j" unicode="j" horiz-adv-x="235" 
d="M165 560q0 -19 -13 -32t-32 -13t-32 13t-13 32t13 32t32 13t32 -13t13 -32zM155 -84q0 -62 -20.5 -96.5t-49 -49.5t-59.5 -13t-51 15v67q13 -12 31.5 -16.5t35.5 2.5q43 17 43 90v525h70v-524z" />
    <glyph glyph-name="k" unicode="k" horiz-adv-x="421" 
d="M145 0h-70v750h70v-507l161 198h93l-181 -214l193 -227h-93l-173 211v-211z" />
    <glyph glyph-name="l" unicode="l" horiz-adv-x="220" 
d="M145 0h-70v750h70v-750z" />
    <glyph glyph-name="m" unicode="m" horiz-adv-x="763" 
d="M633 2v275q0 68 -43 96q-15 9 -46 9t-58 -18t-43 -46q-6 -11 -11 -24v-17v-275h-70v275q0 68 -43 96q-15 9 -46 9t-58 -18t-43 -46q-21 -37 -27 -91v-225h-70v440h70v-70q20 34 49 55q35 25 81 25t74 -14.5t47 -38.5q10 -14 18 -31q20 36 51 59q35 25 81 25t74 -14.5
t46 -38.5q37 -47 37 -122v-275h-70z" />
    <glyph glyph-name="n" unicode="n" horiz-adv-x="509" 
d="M379 0v275q0 43 -19.5 73.5t-64.5 30.5t-73 -17t-45 -44q-32 -50 -32 -134v-184h-70v440h70v-76q22 37 56 60q36 25 83 25t76 -13.5t49 -37.5q40 -46 40 -123v-275h-70z" />
    <glyph glyph-name="o" unicode="o" horiz-adv-x="550" 
d="M435 222q0 66 -47 113t-113 47t-113 -47t-47 -113q0 -65 47 -112t113 -47t113 47t47 112zM505 222q0 -96 -67 -162q-69 -67 -163 -67t-163 67q-67 66 -67 162q0 95 67.5 162.5t162.5 67.5t162.5 -67.5t67.5 -162.5z" />
    <glyph glyph-name="p" unicode="p" 
d="M145 -250h-70v690h70v-75q6 8 13 15q62 70 153 70t153 -70q61 -68 61 -160t-61 -160q-62 -70 -153 -70t-153 70q-7 7 -13 15v-325zM455 220q0 64 -45 112q-44 48 -110 48t-110 -48q-45 -48 -45 -112t45 -112q44 -48 110 -48t110 48q45 48 45 112z" />
    <glyph glyph-name="q" unicode="q" 
d="M425 220q0 64 -45 112q-44 48 -110 48t-110 -48q-45 -48 -45 -112t45 -112q44 -48 110 -48t110 48q45 48 45 112zM495 -250h-70v325q-6 -8 -13 -15q-62 -70 -153 -70t-153 70q-61 68 -61 160t61 160q62 70 153 70t153 -70q7 -7 13 -15v75h70v-690z" />
    <glyph glyph-name="r" unicode="r" horiz-adv-x="311" 
d="M301 349q-24 22 -51.5 22t-47 -15.5t-32.5 -37.5q-25 -44 -25 -98v-220h-70v440h70v-91l3 18q35 82 109 82q23 0 44 -9v-91z" />
    <glyph glyph-name="s" unicode="s" horiz-adv-x="402" 
d="M138.5 62.5q26.5 -17.5 68.5 -17.5q96 0 96 72q0 42 -69 64q-29 10 -62.5 18t-62.5 21q-34 16 -51 40t-17 57q0 66 46 99.5t110 33.5t106 -26t57 -93h-75q-12 37 -35 49q-22 12 -55 12t-56 -14q-24 -15 -24 -44.5t20 -43.5q19 -13 48 -22.5t63 -16.5q33 -8 63 -22
q68 -32 68 -103t-51 -105q-26 -17 -57 -26q-30 -8 -66 -8q-153 0 -176 136h74q11 -43 37.5 -60.5z" />
    <glyph glyph-name="t" unicode="t" horiz-adv-x="329" 
d="M20 375v65h110v171h70v-171h109v-65h-109v-375h-70v375h-110z" />
    <glyph glyph-name="u" unicode="u" horiz-adv-x="509" 
d="M379 75q-49 -84 -147 -84q-74 0 -115.5 48.5t-41.5 125.5v275h70v-275q0 -43 19.5 -73.5t64.5 -30.5q82 0 116 51.5t34 143.5v184h70v-440h-70v75z" />
    <glyph glyph-name="v" unicode="v" horiz-adv-x="425" 
d="M213 -42l-203 482h76l127 -327l126 327h76z" />
    <glyph glyph-name="w" unicode="w" horiz-adv-x="724" 
d="M505 -56l-143 355l-141 -355l-211 496h78l132 -339l142 362l142 -362l132 339h78z" />
    <glyph glyph-name="x" unicode="x" horiz-adv-x="448" 
d="M334 0l-110 171l-110 -171h-89l154 221l-154 219h89l110 -169l110 169h89l-154 -220l154 -220h-89z" />
    <glyph glyph-name="y" unicode="y" horiz-adv-x="425" 
d="M131 -250h-85l148 322l-184 368h80l141 -295l126 295h78z" />
    <glyph glyph-name="z" unicode="z" horiz-adv-x="455" 
d="M10 0l288 375h-271v65h405l-288 -375h301v-65h-435z" />
    <glyph glyph-name="braceleft" unicode="{" horiz-adv-x="380" 
d="M144 355v264q0 28 4 52q15 79 101 79h25q13 0 26 -1v-50q-85 16 -85 -38v-313q0 -48 -22.5 -77t-62.5 -51q17 -8 32 -17q53 -33 53 -87v-225q0 -109 85 -91v-49q-14 -1 -27 -1h-35q-23 0 -43 11.5t-35 37.5q-16 25 -16 89v226q0 29 -20 47.5t-44 28.5v68q64 24 64 97z
" />
    <glyph glyph-name="bar" unicode="|" horiz-adv-x="290" 
d="M118 -225v950h55v-950h-55z" />
    <glyph glyph-name="braceright" unicode="}" horiz-adv-x="380" 
d="M236 355q0 -73 64 -97v-68q-24 -10 -44 -28.5t-20 -47.5v-226q0 -64 -16 -89q-15 -26 -35 -37.5t-43 -11.5h-36q-12 0 -26 1v49q85 -18 85 91v225q0 54 53 87q15 9 32 17q-40 22 -62.5 51t-22.5 77v313q0 54 -85 38v50q13 1 26 1h25q86 0 101 -79q4 -24 4 -52v-264z" />
    <glyph glyph-name="asciitilde" unicode="~" horiz-adv-x="526" 
d="M397 771l53 -33q-36 -54 -80 -78q-17 -9 -35.5 -9t-36 7t-35 15t-35.5 15t-40 7q-30 0 -60 -60l-52 34q16 30 38 52q40 40 65.5 40t44 -7t35.5 -16q47 -22 77 -22t61 55z" />
    <glyph glyph-name="uni00A0" unicode="&#xa0;" horiz-adv-x="270" 
 />
    <glyph glyph-name="dieresis" unicode="&#xa8;" horiz-adv-x="564" 
d="M413 826q13 -13 13 -31.5t-13 -31.5t-32 -13t-31.5 13t-12.5 31.5t12.5 31.5t31.5 13t32 -13zM231 826q13 -13 13 -31.5t-13 -31.5t-32 -13t-31.5 13t-12.5 31.5t12.5 31.5t31.5 13t32 -13z" />
    <glyph glyph-name="copyright" unicode="&#xa9;" horiz-adv-x="747" 
d="M529 303q-54 -95 -158 -95q-71 0 -123 50q-51 49 -51 118q0 70 51 119q52 50 123 50q61 0 107 -35q33 -23 52 -62h-60q-36 44 -99 44q-49 0 -83 -34q-35 -35 -35 -82q0 -46 35 -81q34 -34 90.5 -34t90.5 42h60zM636 375q0 106 -77 179q-77 74 -186 74t-185 -74
q-77 -75 -77 -179q0 -105 77 -181q76 -73 185 -73t186 73q77 74 77 181zM699 375q0 -65 -26 -122.5t-70 -100.5t-103.5 -67.5t-126.5 -24.5q-134 0 -229 92q-45 43 -71 100.5t-26 122.5t26 122t71 100q95 92 229 92q67 0 126.5 -24.5t103.5 -67.5t70 -100t26 -122z" />
    <glyph glyph-name="registered" unicode="&#xae;" horiz-adv-x="747" 
d="M439 442q0 23 -18 37.5t-41 14.5h-47v-104h47q23 0 41 14.5t18 37.5zM500 218h-59l-63 136h-45v-136h-46v313h93q42 0 74 -27q31 -25 31 -62q0 -20 -13.5 -39.5t-51.5 -44.5zM636 375q0 106 -77 179q-77 74 -186 74t-185 -74q-77 -75 -77 -179q0 -105 77 -181
q76 -73 185 -73t186 73q77 74 77 181zM699 375q0 -65 -26 -122.5t-70 -100.5t-103.5 -67.5t-126.5 -24.5q-134 0 -229 92q-45 43 -70.5 100.5t-25.5 122.5q0 130 96 222q95 92 229 92q67 0 126.5 -24.5t103.5 -67.5t70 -100t26 -122z" />
    <glyph glyph-name="degree" unicode="&#xb0;" horiz-adv-x="460" 
d="M325 532q0 62 -49 85q-18 9 -46 9q-50 0 -75 -31q-20 -24 -20 -63q0 -41 15 -59.5t33 -26.5t46.5 -8t47 8t29.5 22q19 23 19 64zM395 532q0 -33 -12.5 -60.5t-34.5 -47.5q-46 -40 -118 -40t-118 40q-47 42 -47 109q0 65 48 107q47 42 117 42t117 -42q48 -42 48 -108z" />
    <glyph glyph-name="acute" unicode="&#xb4;" horiz-adv-x="186" 
d="M176 893l-100 -143h-56l80 143h76z" />
    <glyph glyph-name="paragraph" unicode="&#xb6;" horiz-adv-x="520" 
d="M412 0h-43v612h-63v-612h-44v208q-93 14 -154 75q-60 62 -60 149q0 93 66 158q67 65 160 65h138v-655z" />
    <glyph glyph-name="cedilla" unicode="&#xb8;" horiz-adv-x="539" 
d="M265 -46q1 1 25.5 1t43 -12t29.5 -31q25 -45 4 -96q-23 -55 -97 -66q-68 -9 -139 19l25 52q56 -20 107 -15q53 6 57 38q9 53 -47 61q-21 3 -44 -1t-43 -7l74 163l56 1z" />
    <glyph glyph-name="Agrave" unicode="&#xc0;" horiz-adv-x="617" 
d="M185 250h247l-123 313zM607 0h-76l-73 185h-299l-73 -185h-76l299 727zM346 750h-56l-110 143h76z" />
    <glyph glyph-name="Aacute" unicode="&#xc1;" horiz-adv-x="617" 
d="M185 250h247l-123 313zM607 0h-76l-73 185h-299l-73 -185h-76l299 727zM444 893l-110 -143h-56l80 143h86z" />
    <glyph glyph-name="Acircumflex" unicode="&#xc2;" horiz-adv-x="617" 
d="M185 250h247l-123 313zM607 0h-76l-73 185h-299l-73 -185h-76l299 727zM308 856l-72 -106h-71l110 143h66l110 -143h-71z" />
    <glyph glyph-name="Atilde" unicode="&#xc3;" horiz-adv-x="617" 
d="M185 250h247l-123 313zM607 0h-76l-73 185h-299l-73 -185h-76l299 727zM144 750q-2 67 38 105q20 19 57 19t55 -12.5t30.5 -27.5t24 -27.5t29.5 -12.5t27 5t13 15q5 11 5 49h49q7 -67 -33 -105q-21 -20 -59.5 -20t-56.5 12.5t-30.5 28t-24.5 28t-32 12.5q-33 0 -41 -35
q-4 -15 -2 -34h-49z" />
    <glyph glyph-name="Adieresis" unicode="&#xc4;" horiz-adv-x="617" 
d="M185 250h247l-123 313zM607 0h-76l-73 185h-299l-73 -185h-76l299 727zM431 826q13 -13 13 -31.5t-13 -31.5t-32 -13t-31.5 13t-12.5 31.5t12.5 31.5t31.5 13t32 -13zM249 826q13 -13 13 -31.5t-13 -31.5t-32 -13t-31.5 13t-12.5 31.5t12.5 31.5t31.5 13t32 -13z" />
    <glyph glyph-name="Aring" unicode="&#xc5;" horiz-adv-x="617" 
d="M185 250h247l-123 313zM607 0h-76l-73 185h-299l-73 -185h-76l280 682q-28 4 -50 26q-30 27 -30 67t30 68q29 28 68 28t68.5 -27.5t29.5 -68.5q0 -40 -30 -68q-20 -20 -48 -25zM277.5 804q-12.5 -12 -12.5 -28.5t12.5 -28.5t31 -12t30.5 12t12 28.5t-12.5 28.5t-30.5 12
t-30.5 -12z" />
    <glyph glyph-name="AE" unicode="&#xc6;" horiz-adv-x="818" 
d="M338 582l-6 -41l-137 -304h143v345zM338 0v175h-169l-76 -175h-78l319 680h409v-72l-333 -2v-232l323 2v-72l-323 -2v-232l333 2v-72h-405z" />
    <glyph glyph-name="Ccedilla" unicode="&#xc7;" horiz-adv-x="729" 
d="M699 208q-38 -98 -124 -157q-83 -58 -182 -61l-17 -36q2 1 26 1t42.5 -12t29.5 -31q25 -45 4 -96q-23 -55 -97 -65q-68 -10 -139 18l25 52q56 -20 108 -14q52 5 56 37q9 53 -47 61q-21 3 -44 -1t-43 -7l43 96q-113 13 -197 101q-98 102 -98 245q0 71 26 134.5t72 111.5
q100 104 241 104q104 0 190 -59.5t124 -156.5h-77q-55 101 -164 134q-36 10 -83 10t-96 -22.5t-85 -60.5q-78 -81 -78 -195q0 -113 78 -194q79 -83 191 -83q76 0 139.5 40t98.5 106h77z" />
    <glyph glyph-name="Egrave" unicode="&#xc8;" horiz-adv-x="554" 
d="M479 0h-404v680h404v-65h-334v-242h324v-66h-324v-242h334v-65zM355 750h-56l-110 143h76z" />
    <glyph glyph-name="Eacute" unicode="&#xc9;" horiz-adv-x="554" 
d="M479 0h-404v680h404v-65h-334v-242h324v-66h-324v-242h334v-65zM420 893l-110 -143h-56l80 143h86z" />
    <glyph glyph-name="Ecircumflex" unicode="&#xca;" horiz-adv-x="554" 
d="M479 0h-404v680h404v-65h-334v-242h324v-66h-324v-242h334v-65zM277 856l-72 -106h-71l110 143h66l110 -143h-71z" />
    <glyph glyph-name="Edieresis" unicode="&#xcb;" horiz-adv-x="554" 
d="M479 0h-404v680h404v-65h-334v-242h324v-66h-324v-242h334v-65zM401 826q13 -13 13 -31.5t-13 -31.5t-32 -13t-31.5 13t-12.5 31.5t12.5 31.5t31.5 13t32 -13zM219 826q13 -13 13 -31.5t-13 -31.5t-32 -13t-31.5 13t-12.5 31.5t12.5 31.5t31.5 13t32 -13z" />
    <glyph glyph-name="Igrave" unicode="&#xcc;" horiz-adv-x="220" 
d="M145 0h-70v680h70v-680zM147 750h-56l-110 143h76z" />
    <glyph glyph-name="Iacute" unicode="&#xcd;" horiz-adv-x="220" 
d="M145 0h-70v680h70v-680zM254 893l-110 -143h-56l80 143h86z" />
    <glyph glyph-name="Icircumflex" unicode="&#xce;" horiz-adv-x="220" 
d="M145 0h-70v680h70v-680zM111 856l-72 -106h-71l110 143h66l110 -143h-71z" />
    <glyph glyph-name="Idieresis" unicode="&#xcf;" horiz-adv-x="220" 
d="M145 0h-70v680h70v-680zM234 826q13 -13 13 -31.5t-13 -31.5t-32 -13t-31.5 13t-12.5 31.5t12.5 31.5t31.5 13t32 -13zM52 826q13 -13 13 -31.5t-13 -31.5t-32 -13t-31.5 13t-12.5 31.5t12.5 31.5t31.5 13t32 -13z" />
    <glyph glyph-name="Eth" unicode="&#xd0;" horiz-adv-x="648" 
d="M535 340q0 116 -82 194q-80 76 -198 76h-110v-258h198v-57h-198v-225h110q118 0 198 76q82 78 82 194zM603 340q0 -74 -27.5 -136.5t-74.5 -107.5t-111 -70.5t-137 -25.5h-178v295h-67v57h67v328h178q73 0 137 -25.5t111 -70.5t74.5 -107.5t27.5 -136.5z" />
    <glyph glyph-name="Ntilde" unicode="&#xd1;" horiz-adv-x="602" 
d="M145 501v-501h-70v723l382 -543v500h70v-722zM138 750q-2 67 38 105q20 19 57 19t55 -12.5t30.5 -27.5t24 -27.5t29.5 -12.5t27 5t13 15q5 11 5 49h49q7 -67 -33 -105q-21 -20 -59.5 -20t-56.5 12.5t-30.5 28t-24.5 28t-32 12.5q-33 0 -41 -35q-4 -15 -2 -34h-49z" />
    <glyph glyph-name="Ograve" unicode="&#xd2;" horiz-adv-x="789" 
d="M674 342q0 115 -82 197t-198 82q-115 0 -197 -82t-82 -197q0 -116 82 -198t197 -82q116 0 198 82t82 198zM744 342q0 -72 -27.5 -136t-75 -111.5t-111.5 -75t-136 -27.5t-135.5 27.5t-111 75t-75 111.5t-27.5 136t27.5 136t75 111t111 74.5t135.5 27.5t136 -27.5
t111.5 -74.5t75 -111t27.5 -136zM422 750h-56l-110 143h76z" />
    <glyph glyph-name="Oacute" unicode="&#xd3;" horiz-adv-x="789" 
d="M674 342q0 115 -82 197t-198 82q-115 0 -197 -82t-82 -197q0 -116 82 -198t197 -82q116 0 198 82t82 198zM744 342q0 -72 -27.5 -136t-75 -111.5t-111.5 -75t-136 -27.5t-135.5 27.5t-111 75t-75 111.5t-27.5 136t27.5 136t75 111t111 74.5t135.5 27.5t136 -27.5
t111.5 -74.5t75 -111t27.5 -136zM532 893l-110 -143h-56l80 143h86z" />
    <glyph glyph-name="Ocircumflex" unicode="&#xd4;" horiz-adv-x="789" 
d="M674 342q0 115 -82 197t-198 82q-115 0 -197 -82t-82 -197q0 -116 82 -198t197 -82q116 0 198 82t82 198zM744 342q0 -72 -27.5 -136t-75 -111.5t-111.5 -75t-136 -27.5t-135.5 27.5t-111 75t-75 111.5t-27.5 136t27.5 136t75 111t111 74.5t135.5 27.5t136 -27.5
t111.5 -74.5t75 -111t27.5 -136zM394 856l-72 -106h-71l110 143h66l110 -143h-71z" />
    <glyph glyph-name="Otilde" unicode="&#xd5;" horiz-adv-x="789" 
d="M674 342q0 115 -82 197t-198 82q-115 0 -197 -82t-82 -197q0 -116 82 -198t197 -82q116 0 198 82t82 198zM744 342q0 -72 -27.5 -136t-75 -111.5t-111.5 -75t-136 -27.5t-135.5 27.5t-111 75t-75 111.5t-27.5 136t27.5 136t75 111t111 74.5t135.5 27.5t136 -27.5
t111.5 -74.5t75 -111t27.5 -136zM230 750q-2 67 38 105q20 19 57 19t55 -12.5t30.5 -27.5t24 -27.5t29.5 -12.5t27 5t13 15q5 11 5 49h49q7 -67 -33 -105q-21 -20 -59.5 -20t-56.5 12.5t-30.5 28t-24.5 28t-32 12.5q-33 0 -41 -35q-4 -15 -2 -34h-49z" />
    <glyph glyph-name="Odieresis" unicode="&#xd6;" horiz-adv-x="789" 
d="M674 342q0 115 -82 197t-198 82q-115 0 -197 -82t-82 -197q0 -116 82 -198t197 -82q116 0 198 82t82 198zM744 342q0 -72 -27.5 -136t-75 -111.5t-111.5 -75t-136 -27.5t-135.5 27.5t-111 75t-75 111.5t-27.5 136t27.5 136t75 111t111 74.5t135.5 27.5t136 -27.5
t111.5 -74.5t75 -111t27.5 -136zM517 826q13 -13 13 -31.5t-13 -31.5t-32 -13t-31.5 13t-12.5 31.5t12.5 31.5t31.5 13t32 -13zM335 826q13 -13 13 -31.5t-13 -31.5t-32 -13t-31.5 13t-12.5 31.5t12.5 31.5t31.5 13t32 -13z" />
    <glyph glyph-name="multiply" unicode="&#xd7;" horiz-adv-x="460" 
d="M386 106l-40 -40l-116 116l-116 -116l-40 40l115 116l-115 116l40 41l116 -116l116 116l40 -41l-115 -116z" />
    <glyph glyph-name="Oslash" unicode="&#xd8;" horiz-adv-x="789" 
d="M744 342q0 -72 -27.5 -136t-75 -111.5t-111.5 -75t-136 -27.5t-136 28q-50 21 -90 55l-44 -44l-39 39l44 44q-35 41 -57 92q-27 64 -27 136t27.5 136t75 111t111 74.5t135.5 27.5t136 -27q52 -23 92 -57l43 42l39 -39l-43 -42q34 -40 55 -90q28 -64 28 -136zM218 125
q75 -63 176 -63q116 0 198 82t82 198q0 100 -63 176zM179 164l394 393q-76 64 -179 64q-115 0 -197 -82t-82 -197q0 -102 64 -178z" />
    <glyph glyph-name="Ugrave" unicode="&#xd9;" horiz-adv-x="627" 
d="M567 225q0 -110 -72 -174q-68 -60 -181 -60q-114 0 -182 60q-72 64 -72 174v455h70v-465q0 -77 56 -118q48 -36 128 -36q125 0 168 84q15 29 15 70v465h70v-455zM352 750h-56l-110 143h76z" />
    <glyph glyph-name="Uacute" unicode="&#xda;" horiz-adv-x="627" 
d="M567 225q0 -110 -72 -174q-68 -60 -181 -60q-114 0 -182 60q-72 64 -72 174v455h70v-465q0 -77 56 -118q48 -36 128 -36q125 0 168 84q15 29 15 70v465h70v-455zM456 893l-110 -143h-56l80 143h86z" />
    <glyph glyph-name="Ucircumflex" unicode="&#xdb;" horiz-adv-x="627" 
d="M567 225q0 -110 -72 -174q-68 -60 -181 -60q-114 0 -182 60q-72 64 -72 174v455h70v-465q0 -77 56 -118q48 -36 128 -36q125 0 168 84q15 29 15 70v465h70v-455zM314 856l-72 -106h-71l110 143h66l110 -143h-71z" />
    <glyph glyph-name="Udieresis" unicode="&#xdc;" horiz-adv-x="627" 
d="M567 225q0 -110 -72 -174q-68 -60 -181 -60q-114 0 -182 60q-72 64 -72 174v455h70v-465q0 -77 56 -118q48 -36 128 -36q125 0 168 84q15 29 15 70v465h70v-455zM437 826q13 -13 13 -31.5t-13 -31.5t-32 -13t-31.5 13t-12.5 31.5t12.5 31.5t31.5 13t32 -13zM255 826
q13 -13 13 -31.5t-13 -31.5t-32 -13t-31.5 13t-12.5 31.5t12.5 31.5t31.5 13t32 -13z" />
    <glyph glyph-name="Yacute" unicode="&#xdd;" horiz-adv-x="605" 
d="M338 320v-320h-70v320l-258 360h90l203 -291l203 291h89zM448 893l-110 -143h-56l80 143h86z" />
    <glyph glyph-name="Thorn" unicode="&#xde;" horiz-adv-x="529" 
d="M509 375q0 -89 -63 -149q-62 -57 -153 -57h-148v-169h-70v680h70v-100h148q90 0 153 -57q63 -58 63 -148zM145 513v-276h158q59 0 97 39q39 41 39 101t-37 98t-99 38h-158z" />
    <glyph glyph-name="germandbls" unicode="&#xdf;" horiz-adv-x="552" 
d="M235 0l-3 67h69q56 0 100 42q43 42 43 103q0 58 -43 95q-42 37 -100 37h-34v62h10q47 0 80 29q34 31 34 77q0 45 -34 76q-33 29 -80.5 29t-74 -17.5t-38.5 -46t-14 -64.5t-2 -73v-416h-72v441q0 120 40 179q48 70 161 70q75 0 131 -46q57 -48 57 -123q0 -46 -25.5 -80.5
t-64.5 -54.5q60 -23 101 -68.5t41 -112.5q0 -86 -66 -147q-64 -58 -150 -58h-66z" />
    <glyph glyph-name="agrave" unicode="&#xe0;" 
d="M425 220q0 64 -45 112q-44 48 -110 48t-110 -48q-45 -48 -45 -112t45 -112q44 -48 110 -48t110 48q45 48 45 112zM495 0h-70v75q-6 -8 -13 -15q-62 -70 -153 -70t-153 70q-61 68 -61 160t61 160q62 70 153 70t153 -70q7 -7 13 -15v75h70v-440zM304 517h-56l-110 143h76z
" />
    <glyph glyph-name="aacute" unicode="&#xe1;" 
d="M425 220q0 64 -45 112q-44 48 -110 48t-110 -48q-45 -48 -45 -112t45 -112q44 -48 110 -48t110 48q45 48 45 112zM495 0h-70v75q-6 -8 -13 -15q-62 -70 -153 -70t-153 70q-61 68 -61 160t61 160q62 70 153 70t153 -70q7 -7 13 -15v75h70v-440zM378 681l-110 -143h-56
l80 143h86z" />
    <glyph glyph-name="acircumflex" unicode="&#xe2;" 
d="M425 220q0 64 -45 112q-44 48 -110 48t-110 -48q-45 -48 -45 -112t45 -112q44 -48 110 -48t110 48q45 48 45 112zM495 0h-70v75q-6 -8 -13 -15q-62 -70 -153 -70t-153 70q-61 68 -61 160t61 160q62 70 153 70t153 -70q7 -7 13 -15v75h70v-440zM265 623l-72 -106h-71
l110 143h66l110 -143h-71z" />
    <glyph glyph-name="atilde" unicode="&#xe3;" 
d="M425 220q0 64 -45 112q-44 48 -110 48t-110 -48q-45 -48 -45 -112t45 -112q44 -48 110 -48t110 48q45 48 45 112zM495 0h-70v75q-6 -8 -13 -15q-62 -70 -153 -70t-153 70q-61 68 -61 160t61 160q62 70 153 70t153 -70q7 -7 13 -15v75h70v-440zM105 518q-2 67 38 105
q20 19 57 19t55 -12.5t30.5 -27.5t24 -27.5t29.5 -12.5t27 5t13 15q5 11 5 49h49q7 -67 -33 -105q-21 -20 -59.5 -20t-56.5 12.5t-30.5 28t-24.5 28t-32 12.5q-33 0 -41 -35q-4 -15 -2 -34h-49z" />
    <glyph glyph-name="adieresis" unicode="&#xe4;" 
d="M425 220q0 64 -45 112q-44 48 -110 48t-110 -48q-45 -48 -45 -112t45 -112q44 -48 110 -48t110 48q45 48 45 112zM495 0h-70v75q-6 -8 -13 -15q-62 -70 -153 -70t-153 70q-61 68 -61 160t61 160q62 70 153 70t153 -70q7 -7 13 -15v75h70v-440zM379 593q13 -13 13 -31.5
t-13 -31.5t-32 -13t-31.5 13t-12.5 31.5t12.5 31.5t31.5 13t32 -13zM197 593q13 -13 13 -31.5t-13 -31.5t-32 -13t-31.5 13t-12.5 31.5t12.5 31.5t31.5 13t32 -13z" />
    <glyph glyph-name="aring" unicode="&#xe5;" 
d="M425 220q0 64 -45 112q-44 48 -110 48t-110 -48q-45 -48 -45 -112t45 -112q44 -48 110 -48t110 48q45 48 45 112zM495 0h-70v75q-6 -8 -13 -15q-62 -70 -153 -70t-153 70q-61 68 -61 160t61 160q62 70 153 70t153 -70q7 -7 13 -15v75h70v-440zM224.5 625
q-12.5 -12 -12.5 -28.5t12.5 -28.5t31 -12t30.5 12t12 28.5t-12.5 28.5t-30.5 12t-30.5 -12zM157 596q0 40 30 68q29 28 68 28t68.5 -27.5t29.5 -68.5q0 -40 -29 -68q-29 -27 -69 -27q-39 0 -68.5 27.5t-29.5 67.5z" />
    <glyph glyph-name="ae" unicode="&#xe6;" horiz-adv-x="867" 
d="M387 119q-21 40 -25 94v1h-197q-50 -26 -50 -73t25.5 -65.5t69.5 -18.5t92.5 16.5t84.5 45.5zM748 258q-13 55 -56 89.5t-99.5 34.5t-100 -34.5t-56.5 -89.5h312zM416 74q-62 -56 -165 -78q-31 -6 -60.5 -6t-57 10t-46.5 28q-42 38 -42 104q0 48 26 84t69 54h222v25
q0 68 -71 87q-20 6 -48.5 6t-61 -17t-46.5 -51l-64 27q23 55 72 79t101.5 24t99 -18.5t70.5 -63.5q33 40 79.5 62t95 22t90.5 -17.5t74 -47.5q69 -66 69 -157v-37h-387q10 -57 55 -93q46 -37 102 -37q38 0 72.5 17.5t57.5 48.5h80q-28 -63 -84.5 -99.5t-116.5 -36.5
q-116 0 -185 81z" />
    <glyph glyph-name="ccedilla" unicode="&#xe7;" horiz-adv-x="521" 
d="M486 282h-76q-18 42 -56 68t-77 26t-67 -12.5t-48 -34.5q-45 -46 -45 -109q0 -64 44.5 -110.5t108.5 -46.5q42 0 77.5 22t55.5 59h79q-37 -106 -143 -143q-21 -7 -46 -10l-18 -37q1 1 25.5 1t43 -12t29.5 -32q25 -44 4 -95q-23 -55 -97 -66q-68 -9 -139 19l25 52
q56 -20 108 -15q52 6 56 38q9 53 -47 61q-21 3 -44 -1t-43 -7l43 95q-29 4 -58 16q-41 19 -71 50q-65 69 -65 162q0 94 65 161q66 68 160 68q76 0 136 -47q59 -45 80 -120z" />
    <glyph glyph-name="egrave" unicode="&#xe8;" horiz-adv-x="550" 
d="M505 230v-37h-387q10 -57 55 -93q46 -37 102 -37q38 0 72.5 17.5t57.5 48.5h80q-28 -63 -84.5 -99.5t-115 -36.5t-100 18t-73.5 49q-67 66 -67 162q0 95 67.5 162.5t162.5 67.5q92 0 161 -65q69 -66 69 -157zM431 253q-12 56 -56 93q-44 36 -100 36q-86 0 -135 -78
q-15 -23 -21 -51h312zM314 517h-56l-110 143h76z" />
    <glyph glyph-name="eacute" unicode="&#xe9;" horiz-adv-x="550" 
d="M505 230v-37h-387q10 -57 55 -93q46 -37 102 -37q38 0 72.5 17.5t57.5 48.5h80q-28 -63 -84.5 -99.5t-115 -36.5t-100 18t-73.5 49q-67 66 -67 162q0 95 67.5 162.5t162.5 67.5q92 0 161 -65q69 -66 69 -157zM431 253q-12 56 -56 93q-44 36 -100 36q-86 0 -135 -78
q-15 -23 -21 -51h312zM408 681l-110 -143h-56l80 143h86z" />
    <glyph glyph-name="ecircumflex" unicode="&#xea;" horiz-adv-x="550" 
d="M505 230v-37h-387q10 -57 55 -93q46 -37 102 -37q38 0 72.5 17.5t57.5 48.5h80q-28 -63 -84.5 -99.5t-115 -36.5t-100 18t-73.5 49q-67 66 -67 162q0 95 67.5 162.5t162.5 67.5q92 0 161 -65q69 -66 69 -157zM431 253q-12 56 -56 93q-44 36 -100 36q-86 0 -135 -78
q-15 -23 -21 -51h312zM275 623l-72 -106h-71l110 143h66l110 -143h-71z" />
    <glyph glyph-name="edieresis" unicode="&#xeb;" horiz-adv-x="550" 
d="M505 230v-37h-387q10 -57 55 -93q46 -37 102 -37q38 0 72.5 17.5t57.5 48.5h80q-28 -63 -84.5 -99.5t-115 -36.5t-100 18t-73.5 49q-67 66 -67 162q0 95 67.5 162.5t162.5 67.5q92 0 161 -65q69 -66 69 -157zM431 253q-12 56 -56 93q-44 36 -100 36q-86 0 -135 -78
q-15 -23 -21 -51h312zM399 593q13 -13 13 -31.5t-13 -31.5t-32 -13t-31.5 13t-12.5 31.5t12.5 31.5t31.5 13t32 -13zM217 593q13 -13 13 -31.5t-13 -31.5t-32 -13t-31.5 13t-12.5 31.5t12.5 31.5t31.5 13t32 -13z" />
    <glyph glyph-name="igrave" unicode="&#xec;" horiz-adv-x="229" 
d="M150 0h-70v440h70v-440zM144 517h-56l-110 143h76z" />
    <glyph glyph-name="iacute" unicode="&#xed;" horiz-adv-x="229" 
d="M150 0h-70v440h70v-440zM265 681l-110 -143h-56l80 143h86z" />
    <glyph glyph-name="icircumflex" unicode="&#xee;" horiz-adv-x="229" 
d="M150 0h-70v440h70v-440zM115 623l-72 -106h-71l110 143h66l110 -143h-71z" />
    <glyph glyph-name="idieresis" unicode="&#xef;" horiz-adv-x="229" 
d="M150 0h-70v440h70v-440zM239 593q13 -13 13 -31.5t-13 -31.5t-32 -13t-31.5 13t-12.5 31.5t12.5 31.5t31.5 13t32 -13zM57 593q13 -13 13 -31.5t-13 -31.5t-32 -13t-31.5 13t-12.5 31.5t12.5 31.5t31.5 13t32 -13z" />
    <glyph glyph-name="eth" unicode="&#xf0;" 
d="M495 0h-70v75q-6 -8 -13 -15q-62 -70 -153 -70t-153 70q-61 68 -61 160t61 160q62 70 153 70t153 -70q7 -7 13 -15v181h-200v57h200v147h70v-147h65v-57h-65v-546zM425 220q0 64 -45 112q-44 48 -110 48t-110 -48q-45 -48 -45 -112t45 -112q44 -48 110 -48t110 48
q45 48 45 112z" />
    <glyph glyph-name="ntilde" unicode="&#xf1;" horiz-adv-x="509" 
d="M379 0v275q0 43 -19.5 73.5t-64.5 30.5t-73 -17t-45 -44q-32 -50 -32 -134v-184h-70v440h70v-76q22 37 56 60q36 25 83 25t76 -13.5t49 -37.5q40 -46 40 -123v-275h-70zM90 518q-2 67 38 105q20 19 57 19t55 -12.5t30.5 -27.5t24 -27.5t29.5 -12.5t27 5t13 15q5 11 5 49
h49q7 -67 -33 -105q-21 -20 -59.5 -20t-56.5 12.5t-30.5 28t-24.5 28t-32 12.5q-33 0 -41 -35q-4 -15 -2 -34h-49z" />
    <glyph glyph-name="ograve" unicode="&#xf2;" horiz-adv-x="550" 
d="M435 222q0 66 -47 113t-113 47t-113 -47t-47 -113q0 -65 47 -112t113 -47t113 47t47 112zM505 222q0 -96 -67 -162q-69 -67 -163 -67t-163 67q-67 66 -67 162q0 95 67.5 162.5t162.5 67.5t162.5 -67.5t67.5 -162.5zM313 517h-56l-110 143h76z" />
    <glyph glyph-name="oacute" unicode="&#xf3;" horiz-adv-x="550" 
d="M435 222q0 66 -47 113t-113 47t-113 -47t-47 -113q0 -65 47 -112t113 -47t113 47t47 112zM505 222q0 -96 -67 -162q-69 -67 -163 -67t-163 67q-67 66 -67 162q0 95 67.5 162.5t162.5 67.5t162.5 -67.5t67.5 -162.5zM418 681l-110 -143h-56l80 143h86z" />
    <glyph glyph-name="ocircumflex" unicode="&#xf4;" horiz-adv-x="550" 
d="M435 222q0 66 -47 113t-113 47t-113 -47t-47 -113q0 -65 47 -112t113 -47t113 47t47 112zM505 222q0 -96 -67 -162q-69 -67 -163 -67t-163 67q-67 66 -67 162q0 95 67.5 162.5t162.5 67.5t162.5 -67.5t67.5 -162.5zM275 623l-72 -106h-71l110 143h66l110 -143h-71z" />
    <glyph glyph-name="otilde" unicode="&#xf5;" horiz-adv-x="550" 
d="M435 222q0 66 -47 113t-113 47t-113 -47t-47 -113q0 -65 47 -112t113 -47t113 47t47 112zM505 222q0 -96 -67 -162q-69 -67 -163 -67t-163 67q-67 66 -67 162q0 95 67.5 162.5t162.5 67.5t162.5 -67.5t67.5 -162.5zM110 518q-2 67 38 105q20 19 57 19t55 -12.5
t30.5 -27.5t24 -27.5t29.5 -12.5t27 5t13 15q5 11 5 49h49q7 -67 -33 -105q-21 -20 -59.5 -20t-56.5 12.5t-30.5 28t-24.5 28t-32 12.5q-33 0 -41 -35q-4 -15 -2 -34h-49z" />
    <glyph glyph-name="odieresis" unicode="&#xf6;" horiz-adv-x="550" 
d="M435 222q0 66 -47 113t-113 47t-113 -47t-47 -113q0 -65 47 -112t113 -47t113 47t47 112zM505 222q0 -96 -67 -162q-69 -67 -163 -67t-163 67q-67 66 -67 162q0 95 67.5 162.5t162.5 67.5t162.5 -67.5t67.5 -162.5zM399 593q13 -13 13 -31.5t-13 -31.5t-32 -13t-31.5 13
t-12.5 31.5t12.5 31.5t31.5 13t32 -13zM217 593q13 -13 13 -31.5t-13 -31.5t-32 -13t-31.5 13t-12.5 31.5t12.5 31.5t31.5 13t32 -13z" />
    <glyph glyph-name="divide" unicode="&#xf7;" horiz-adv-x="410" 
d="M268 57q0 -23 -16.5 -39t-39.5 -16t-39 16t-16 39t16 39.5t39 16.5t39.5 -16.5t16.5 -39.5zM373 194h-335v57h335v-57zM268 381q0 -23 -16.5 -39t-39.5 -16t-39 16t-16 39t16 39.5t39 16.5t39.5 -16.5t16.5 -39.5z" />
    <glyph glyph-name="oslash" unicode="&#xf8;" horiz-adv-x="550" 
d="M505 222q0 -96 -67 -162q-69 -67 -163 -67q-80 0 -140 48l-53 -53l-39 39l52 52q-50 61 -50 143q0 95 67.5 162.5t162.5 67.5q81 0 143 -50l49 50l39 -39l-50 -50q49 -60 49 -141zM185 91q39 -28 90 -28q66 0 113 47t47 112q0 51 -28 91zM145 129l223 223q-41 30 -93 30
q-66 0 -113 -47t-47 -113q0 -52 30 -93z" />
    <glyph glyph-name="ugrave" unicode="&#xf9;" horiz-adv-x="509" 
d="M379 75q-49 -84 -147 -84q-74 0 -115.5 48.5t-41.5 125.5v275h70v-275q0 -43 19.5 -73.5t64.5 -30.5q82 0 116 51.5t34 143.5v184h70v-440h-70v75zM293 517h-56l-110 143h76z" />
    <glyph glyph-name="uacute" unicode="&#xfa;" horiz-adv-x="509" 
d="M379 75q-49 -84 -147 -84q-74 0 -115.5 48.5t-41.5 125.5v275h70v-275q0 -43 19.5 -73.5t64.5 -30.5q82 0 116 51.5t34 143.5v184h70v-440h-70v75zM405 681l-110 -143h-56l80 143h86z" />
    <glyph glyph-name="ucircumflex" unicode="&#xfb;" horiz-adv-x="509" 
d="M379 75q-49 -84 -147 -84q-74 0 -115.5 48.5t-41.5 125.5v275h70v-275q0 -43 19.5 -73.5t64.5 -30.5q82 0 116 51.5t34 143.5v184h70v-440h-70v75zM255 623l-72 -106h-71l110 143h66l110 -143h-71z" />
    <glyph glyph-name="udieresis" unicode="&#xfc;" horiz-adv-x="509" 
d="M379 75q-49 -84 -147 -84q-74 0 -115.5 48.5t-41.5 125.5v275h70v-275q0 -43 19.5 -73.5t64.5 -30.5q82 0 116 51.5t34 143.5v184h70v-440h-70v75zM379 593q13 -13 13 -31.5t-13 -31.5t-32 -13t-31.5 13t-12.5 31.5t12.5 31.5t31.5 13t32 -13zM197 593q13 -13 13 -31.5
t-13 -31.5t-32 -13t-31.5 13t-12.5 31.5t12.5 31.5t31.5 13t32 -13z" />
    <glyph glyph-name="yacute" unicode="&#xfd;" horiz-adv-x="425" 
d="M131 -250h-85l148 322l-184 368h80l141 -295l126 295h78zM368 681l-110 -143h-56l80 143h86z" />
    <glyph glyph-name="thorn" unicode="&#xfe;" 
d="M145 -250h-70v1000h70v-385q6 8 12 15q63 70 154 70t154 -70q60 -68 60 -160t-60 -160q-63 -70 -154 -70q-89 0 -153 70q-7 7 -13 15v-325zM455 220q0 64 -45 112q-44 48 -110 48t-111 -48q-44 -48 -44 -112t44 -112q45 -48 111 -48t110 48q45 48 45 112z" />
    <glyph glyph-name="ydieresis" unicode="&#xff;" horiz-adv-x="425" 
d="M131 -250h-85l148 322l-184 368h80l141 -295l126 295h78zM337 593q13 -13 13 -31.5t-13 -31.5t-32 -13t-31.5 13t-12.5 31.5t12.5 31.5t31.5 13t32 -13zM155 593q13 -13 13 -31.5t-13 -31.5t-32 -13t-31.5 13t-12.5 31.5t12.5 31.5t31.5 13t32 -13z" />
    <glyph glyph-name="dotlessi" unicode="&#x131;" horiz-adv-x="229" 
d="M150 0h-70v440h70v-440z" />
    <glyph glyph-name="OE" unicode="&#x152;" horiz-adv-x="998" 
d="M143 340q0 -116 82 -194q80 -76 198 -76h110v540h-110q-118 0 -198 -76q-82 -78 -82 -194zM75 340q0 74 27.5 136.5t74.5 107.5t111 70.5t137 25.5h512v-65h-334v-242h324v-66h-324v-242h334v-65h-334h-178q-73 0 -137 25.5t-111 70.5t-74.5 107.5t-27.5 136.5z" />
    <glyph glyph-name="oe" unicode="&#x153;" horiz-adv-x="939" 
d="M435 222q0 66 -47 113t-113 47t-113 -47t-47 -113q0 -65 47 -112t113 -47t113 47t47 112zM821 258q-14 55 -56.5 89.5t-99.5 34.5q-56 0 -100 -34.5t-56 -89.5h312zM470 100q-32 -50 -83.5 -78.5t-105.5 -28.5t-95.5 18t-73.5 49q-67 66 -67 162q0 95 67.5 162.5
t162.5 67.5q60 0 111.5 -28.5t83.5 -78.5q32 51 83.5 79t104 28t94.5 -17.5t73 -47.5q69 -65 69 -157v-37h-387q10 -57 55 -93q46 -37 103 -37q38 0 72.5 17.5t57.5 48.5h80q-28 -63 -85 -99.5t-121 -36.5t-115.5 28t-83.5 79z" />
    <glyph glyph-name="circumflex" unicode="&#x2c6;" horiz-adv-x="306" 
d="M153 856l-72 -106h-71l110 143h66l110 -143h-71z" />
    <glyph glyph-name="caron" unicode="&#x2c7;" horiz-adv-x="1060" 
 />
    <glyph glyph-name="ring" unicode="&#x2da;" horiz-adv-x="267" 
d="M102.5 804q-12.5 -12 -12.5 -28.5t12.5 -28.5t31 -12t30.5 12t12 28.5t-12.5 28.5t-30.5 12t-30.5 -12zM35 775q0 40 30 68q29 28 68 28t68.5 -27.5t29.5 -68.5q0 -40 -29 -68q-29 -27 -69 -27q-39 0 -68.5 27.5t-29.5 67.5z" />
    <glyph glyph-name="tilde" unicode="&#x2dc;" horiz-adv-x="419" 
d="M45 730q-2 67 38 105q20 19 57 19t55 -12.5t30.5 -27.5t24 -27.5t29.5 -12.5t27 5t13 15q5 11 5 49h49q7 -67 -33 -105q-21 -20 -59.5 -20t-56.5 12.5t-30.5 28t-24.5 28t-32 12.5q-33 0 -41 -35q-4 -15 -2 -34h-49z" />
    <glyph glyph-name="endash" unicode="&#x2013;" horiz-adv-x="390" 
d="M368 180h-345v58h345v-58z" />
    <glyph glyph-name="emdash" unicode="&#x2014;" horiz-adv-x="689" 
d="M667 180h-644v58h644v-58z" />
    <glyph glyph-name="quoteleft" unicode="&#x2018;" horiz-adv-x="204" 
d="M25 491l112 259h42l-58 -259h-96z" />
    <glyph glyph-name="quoteright" unicode="&#x2019;" horiz-adv-x="204" 
d="M179 750l-112 -259h-42l58 259h96z" />
    <glyph glyph-name="quotedblleft" unicode="&#x201c;" horiz-adv-x="361" 
d="M182 491l112 259h42l-58 -259h-96zM25 491l112 259h42l-58 -259h-96z" />
    <glyph glyph-name="quotedblright" unicode="&#x201d;" horiz-adv-x="361" 
d="M179 750l-112 -259h-42l58 259h96zM336 750l-112 -259h-42l58 259h96z" />
    <glyph glyph-name="bullet" unicode="&#x2022;" horiz-adv-x="300" 
d="M264 342q0 -47 -33.5 -80.5t-80.5 -33.5t-80.5 33.5t-33.5 80.5t33.5 80.5t80.5 33.5t80.5 -33.5t33.5 -80.5z" />
    <glyph glyph-name="ellipsis" unicode="&#x2026;" horiz-adv-x="667" 
d="M133 -10q-23 0 -40.5 16.5t-17.5 39.5t17 40t41 17t41.5 -16.5t17.5 -40t-18 -40t-41 -16.5zM333 -10q-23 0 -40.5 16.5t-17.5 39.5t17 40t41 17t41.5 -16.5t17.5 -40t-18 -40t-41 -16.5zM533 -10q-23 0 -40.5 16.5t-17.5 39.5t17 40t41 17t41.5 -16.5t17.5 -40t-18 -40
t-41 -16.5z" />
    <glyph glyph-name="fraction" unicode="&#x2044;" horiz-adv-x="444" 
d="M399 679l-287 -679h-67l286 679h68z" />
    <glyph glyph-name="trademark" unicode="&#x2122;" horiz-adv-x="779" 
d="M289 632h-105v-294h-56v294h-104v48h265v-48zM755 338h-64l-51 287l-84 -287h-60l-85 287l-50 -287h-64l67 342h76l86 -279l86 279h76z" />
    <glyph glyph-name="minus" unicode="&#x2212;" horiz-adv-x="360" 
d="M323 193h-285v57h285v-57z" />
    <glyph glyph-name="apple" unicode="&#xf8ff;" horiz-adv-x="926" 
d="M284 247q0 -17 -18 -17q-7 0 -12 4.5t-5 12.5v262q0 8 5 13t12.5 5t12.5 -5t5 -13v-262zM397 395q18 0 18 -17t-18 -17h-65q-17 0 -17 17t17 17h65zM463 527q17 0 17 -18v-262q0 -17 -17 -17t-17 17v262q0 18 17 18zM663 526l6 -2q8 -8 8 -15t-5 -12l-119 -119l119 -119
q5 -5 5 -12t-5 -12t-12 -5t-12 5l-132 131q-5 5 -5 12t5 12l132 131q4 5 13 5h2zM806 378q0 71 -27 133.5t-73.5 109t-109 73.5t-133.5 27t-133.5 -27t-109 -73.5t-73.5 -109t-27 -133.5t27 -133.5t73.5 -109t109 -73.5t133.5 -27t133.5 27t109 73.5t73.5 109t27 133.5z
M841 378q0 -78 -29.5 -147t-81 -120.5t-120.5 -81t-147 -29.5t-147 29.5t-120.5 81t-81 120.5t-29.5 147t29.5 147t81 120.5t120.5 81t147 29.5t147 -29.5t120.5 -81t81 -120.5t29.5 -147z" />
    </font>
</defs>
</svg>
