<?xml version="1.0" encoding="UTF-8"?>
<!DOCTYPE svg PUBLIC "-//W3C//DTD SVG 1.1//EN" "http://www.w3.org/Graphics/SVG/1.1/DTD/svg11.dtd">
<!-- Creator: CorelDRAW X8 -->
<svg xmlns="http://www.w3.org/2000/svg" xml:space="preserve" width="228.652mm" height="138.219mm" version="1.1" style="shape-rendering:geometricPrecision; text-rendering:geometricPrecision; image-rendering:optimizeQuality; fill-rule:evenodd; clip-rule:evenodd"
viewBox="0 0 22865 13822"
 xmlns:xlink="http://www.w3.org/1999/xlink">
 <defs>
  <style type="text/css">
   <![CDATA[
    .fil0 {fill:white;fill-rule:nonzero}
    .fil3 {fill:white;fill-rule:nonzero;fill-opacity:0.549020}
    .fil1 {fill:white;fill-rule:nonzero;fill-opacity:0.701961}
    .fil2 {fill:white;fill-rule:nonzero;fill-opacity:0.850980}
   ]]>
  </style>
 </defs>
 <g id="Layer_x0020_1">
  <metadata id="CorelCorpID_0Corel-Layer"/>
  <path class="fil0" d="M898 11229c540,0 903,410 903,936 0,526 -367,940 -903,940l-898 0 0 642 940 0c899,0 1574,-689 1574,-1582 0,-894 -680,-1583 -1574,-1583l-940 0 0 647 898 0zm2896 2518l0 -3165 -698 0 0 3165 698 0zm1927 -493c-344,0 -642,-172 -661,-549l-708 0c5,772 643,1117 1341,1117 647,0 1313,-275 1313,-1020 0,-1205 -1830,-800 -1830,-1363 0,-238 275,-331 470,-331 350,0 540,107 578,438l675 0c-24,-722 -610,-1011 -1262,-1011 -577,0 -1182,308 -1182,959 0,1169 1829,773 1829,1388 0,284 -344,372 -563,372zm2542 -638l4 0 754 1131 885 0 -908 -1163c400,-98 722,-452 722,-987 0,-601 -457,-1015 -969,-1015l-488 0 -173 0 -526 0 0 3165 699 0 0 -1131zm372 -1485c205,0 419,177 419,466 0,302 -214,470 -419,470l-372 0 0 -936 372 0zm3482 -549l0 1829c0,438 -130,685 -610,685 -475,0 -610,-247 -610,-685l0 -1829 -698 0 0 1932c0,842 484,1280 1308,1280 824,0 1308,-438 1308,-1280l0 -1932 -698 0zm2025 2034l489 0c512,0 968,-377 968,-1019 0,-601 -456,-1015 -968,-1015l-489 0 -172 0 -526 0 0 3165 698 0 0 -1131zm372 -1485c205,0 419,177 419,466 0,302 -214,470 -419,470l-372 0 0 -936 372 0zm2919 84l903 0 0 -633 -2504 0 0 633 903 0 0 2532 698 0 0 -2532z"/>
  <polygon class="fil1" points="8336,9354 7153,7306 15254,2628 16437,4677 "/>
  <polygon class="fil2" points="5043,9354 2995,8171 7672,70 9721,1253 "/>
  <polygon class="fil3" points="22865,7048 22865,9413 13444,9413 13444,7048 "/>
  <polygon class="fil0" points="2366,9354 0,9354 0,0 2366,0 "/>
  <path class="fil0" d="M19919 13096l0 -2514 -699 0 0 3212 699 -698zm2043 -1881l903 0 0 -633 -2504 0 0 633 903 0 0 2579 698 -698 0 -1881z"/>
 </g>
</svg>
