<?xml version="1.0" encoding="UTF-8"?>
<!DOCTYPE svg PUBLIC "-//W3C//DTD SVG 1.1//EN" "http://www.w3.org/Graphics/SVG/1.1/DTD/svg11.dtd">
<!-- Creator: CorelDRAW X8 -->
<svg xmlns="http://www.w3.org/2000/svg" xml:space="preserve" width="278.905mm" height="40.0869mm" version="1.1" style="shape-rendering:geometricPrecision; text-rendering:geometricPrecision; image-rendering:optimizeQuality; fill-rule:evenodd; clip-rule:evenodd"
viewBox="0 0 27890 4009"
 xmlns:xlink="http://www.w3.org/1999/xlink">
 <defs>
  <style type="text/css">
   <![CDATA[
    .fil0 {fill:white;fill-rule:nonzero}
   ]]>
  </style>
 </defs>
 <g id="Layer_x0020_1">
  <metadata id="CorelCorpID_0Corel-Layer"/>
  <path class="fil0" d="M24296 3123l0 -3066 -851 0 0 3918 851 -852zm-23200 -2277c659,0 1101,500 1101,1141 0,642 -448,1147 -1101,1147l-1096 0 0 784 1147 0c1096,0 1919,-841 1919,-1931 0,-1090 -829,-1930 -1919,-1930l-1147 0 0 789 1096 0zm3532 3072l0 -3861 -852 0 0 3861 852 0zm2350 -602c-420,0 -783,-210 -806,-670l-863 0c6,943 784,1363 1635,1363 789,0 1601,-335 1601,-1244 0,-1470 -2231,-976 -2231,-1663 0,-290 335,-404 573,-404 426,0 659,131 705,534l823 0c-29,-880 -744,-1232 -1539,-1232 -704,0 -1442,375 -1442,1170 0,1425 2231,942 2231,1692 0,346 -420,454 -687,454zm3101 -778l5 0 920 1380 1079 0 -1107 -1420c488,-119 880,-550 880,-1203 0,-733 -557,-1238 -1181,-1238l-596 0 -211 0 -641 0 0 3861 852 0 0 -1380zm454 -1811c250,0 511,216 511,568 0,369 -261,573 -511,573l-454 0 0 -1141 454 0zm4247 -670l0 2231c0,534 -159,835 -744,835 -579,0 -744,-301 -744,-835l0 -2231 -851 0 0 2356c0,1028 590,1562 1595,1562 1005,0 1596,-534 1596,-1562l0 -2356 -852 0zm2470 2481l596 0c625,0 1181,-460 1181,-1243 0,-733 -556,-1238 -1181,-1238l-596 0 -210 0 -642 0 0 3861 852 0 0 -1380zm454 -1811c250,0 511,216 511,568 0,369 -261,573 -511,573l-454 0 0 -1141 454 0zm3560 102l1102 0 0 -772 -3055 0 0 772 1102 0 0 3089 851 0 0 -3089zm5525 0l1101 0 0 -772 -3054 0 0 772 1101 0 0 3146 852 -852 0 -2294z"/>
 </g>
</svg>
